<mxfile host="app.diagrams.net" modified="2024-06-08T10:41:01.088Z" agent="Mozilla/5.0 (Macintosh; Intel Mac OS X 10_15_7) AppleWebKit/537.36 (KHTML, like Gecko) Chrome/125.0.0.0 Safari/537.36" etag="tuHT4gJnYiRxlq749gID" version="24.5.2" type="device">
  <diagram name="Page-1" id="7oyQApm8k9QO8PLCd5BP">
    <mxGraphModel dx="1203" dy="634" grid="0" gridSize="10" guides="1" tooltips="1" connect="1" arrows="1" fold="1" page="0" pageScale="1" pageWidth="827" pageHeight="1169" math="0" shadow="0">
      <root>
        <mxCell id="0" />
        <mxCell id="1" parent="0" />
        <mxCell id="Mpgq73nM_WfR40BBSJ1R-3" style="edgeStyle=none;curved=1;rounded=0;orthogonalLoop=1;jettySize=auto;html=1;fontSize=12;startSize=8;endSize=8;" edge="1" parent="1" source="Mpgq73nM_WfR40BBSJ1R-1">
          <mxGeometry relative="1" as="geometry">
            <mxPoint x="705" y="475" as="targetPoint" />
            <Array as="points">
              <mxPoint x="709" y="248" />
            </Array>
          </mxGeometry>
        </mxCell>
        <mxCell id="Mpgq73nM_WfR40BBSJ1R-1" value="APP.TSX&lt;br&gt;(handleRemoveTrip)&lt;div&gt;&lt;br&gt;&lt;/div&gt;" style="rounded=0;whiteSpace=wrap;html=1;fillColor=#dae8fc;strokeColor=#6c8ebf;" vertex="1" parent="1">
          <mxGeometry x="460" y="322" width="160" height="80" as="geometry" />
        </mxCell>
        <mxCell id="Mpgq73nM_WfR40BBSJ1R-5" style="edgeStyle=none;curved=1;rounded=0;orthogonalLoop=1;jettySize=auto;html=1;fontSize=12;startSize=8;endSize=8;" edge="1" parent="1" source="Mpgq73nM_WfR40BBSJ1R-2">
          <mxGeometry relative="1" as="geometry">
            <mxPoint x="700" y="637.8780487804879" as="targetPoint" />
          </mxGeometry>
        </mxCell>
        <mxCell id="Mpgq73nM_WfR40BBSJ1R-2" value="Trips.tsx&amp;nbsp;&lt;div&gt;&lt;br&gt;&lt;/div&gt;" style="rounded=0;whiteSpace=wrap;html=1;fillColor=#dae8fc;strokeColor=#6c8ebf;" vertex="1" parent="1">
          <mxGeometry x="620" y="481" width="160" height="79" as="geometry" />
        </mxCell>
        <mxCell id="Mpgq73nM_WfR40BBSJ1R-4" value="&lt;div&gt;TripCard.tsx&lt;/div&gt;&lt;div&gt;&lt;br&gt;&lt;/div&gt;" style="rounded=0;whiteSpace=wrap;html=1;fillColor=#f8cecc;strokeColor=#b85450;" vertex="1" parent="1">
          <mxGeometry x="618" y="640" width="160" height="80" as="geometry" />
        </mxCell>
        <mxCell id="Mpgq73nM_WfR40BBSJ1R-6" value="Renders TripCard for each Trip object" style="text;strokeColor=none;fillColor=none;html=1;align=center;verticalAlign=middle;whiteSpace=wrap;rounded=0;fontSize=16;" vertex="1" parent="1">
          <mxGeometry x="720" y="581" width="217" height="30" as="geometry" />
        </mxCell>
        <mxCell id="Mpgq73nM_WfR40BBSJ1R-7" value="plannedTrips = []" style="text;strokeColor=none;fillColor=none;html=1;align=center;verticalAlign=middle;whiteSpace=wrap;rounded=0;fontSize=16;" vertex="1" parent="1">
          <mxGeometry x="344" y="284" width="343" height="30" as="geometry" />
        </mxCell>
        <mxCell id="Mpgq73nM_WfR40BBSJ1R-9" value="" style="shape=stencil(lVrJch03DPwaXVkEd54d5z9cZTlWxbFcsrP9fZpRcSQ23/TINy3oGZIAGg1w7uK7758/fLu/C/77j6fH3+//fvj44/Nd/OUuhIevn++fHn7gp7v4/i6++/T4dP/b0+OfXz8+//7tw7AcP/3x+Nd4wj/POHOtD1Dw/z7/wbtQ/v/Dr8/mXx6+vjJPziKZ+3huXl3dzP25uXnXK9tXYY/lFLI39fzqUiL72M7t8e/Cp5O7sI+ueLJvYj2huMr77er53bV1v+aCsI/B1U72JQn74tL6/OCCsu8udrJPYj0puBbIvqloKy6v64nzhbftu0uB7JuInxyc5cU+uSTCOWcX1njOMt5yc6GRfRPPL+ZsXT8OQKy/JFfW86kum7CvztZ4azJ+Snd9XU93Qey3hnncR7yBTrIAZCYIM5fEDmpzkd4QXBZLalsKW3RJLKkhxNY9g2WKekN2ZXWyYVeCVVpllgAvqTBqfZ7JAWiSh7pNWjvyDMSoAHHm7QGwSR23AXl7Q5Sh1KvzlPo4VhHbHZ5eTwnJ4EVo9D63eACqDD4A6loNkA5J+AGAvi4p+rmrU8DKLxGeEYRn/iiQByK4rndNlBrTPLgzAHFSzJIk4QjKoFhnmTgDGO2hyzKO2MjrHpKus724vnoOlcXUGxA666ZTcl69Ibm+MitqkYyN5PLKZKnO4nUGIO2SmqQN5GhbWSBfRB+SmqqPTd/fBiDUCBAk9QGQVk/nJAVeNxYkKKlJKAwAKKlzkZKh+3mIB6DJmgUAaZ7cpcgAIK5JjbIdRFUHffd1D0XLHgAoH8oRLGcA4sqCEqSKXGOhBGlwUbPqGnzVSzYGIK4pWk0ea6vMGlATXVVFVBQSP0mqpQFYQ6MipzWAUhTyI+lTIu3QdIMxAOuSWpApCgA5rqUrP4Q1+KBXqgbQsb688zagcAVqmu4BoD0gpYpaUmGZDlpogjXGFtdYAhcWtYcdkGTZHYD1WFFiTDkOFWjNB1S9qFijbEtqsuwOP2QGqG5jvGHN6a7lPQAkHQDI2g9le4NqiBHM1BAPCaU2HbeO2OsZAxKMNFk/upwzALHAEI7qXI27VgBUkQMgBAYodQIA9XFwtUxq4w5iyGtVIMz1yAA16cEpUSuK+JaujiyYACgqgxIX6itAngn21iWVyVtv3XSZMvX1sSpPl8lbrx2nl8Q802cVOyXXLbzVTAOnxLSB8NZc6bfwlgm0Kd3LHI2zcXsrDYQtvi+Ixrj3u6IyY4k1yFKn3E8C/OY5dBAqRz2Lh1GDVOH1c4uvqlzTb6DpMOpo1JsuW6UumjY45bzsswAgbQwtexEalEEvKu0s+PwaS6OM6YkRxffQZGrTkaUuFimXFJiNR7CoAhG4BEG5Sm2MIkdyvcj2dSTQ6mmobymxjEdMY1p4UUapITAtsYz1TOlTTpwWufWUStMNQZjMeADK1TAxrY5DY2Y6+EgAlajZOPFAFM2lZI3EimlMnZWnM4c3GmTTqo8cl+vUXKcliHr2IufYKHLEfBmL1AAqcjnqnN7aphzkxVirPAXONuvkGYByOnU5cgXPGc2w2uTC0yafbjeqvM4BgKgy5TloO5s7BJrDJT136DxhSkH6YXSG9AY/H3E6MKLxZteDu401YtXz0MCXQBF9kQYQa8QkcxpFlhTW1RA4zuh/45x5AGgw7Wd/egpYNx20cO1bnQ5VUmU39nQoeg9+u7PI8pJjhPdKleN6UItvmnyHCxLYWpRxYaxKVuAGwi7k/bZp01d+dbuCtCLHOTXzbN2yTKAap8I7AEl6unqeh5q+1kVVDtRAaL2EIstL0teKqJl00WletgPFb5ONOQW7aZ8rdzRN9kw58Ri7ybkgqhONl6q86UetIRKrzgufpeMi+lANMuzSxkhZSoC43TRnea07vlSg+ixFDAiUJMZxdX7TfriTvwxQ3ILjYwaWnRUeR19OHOOQ2/Y2j/vFXiWltcmdBxPJsomUpavNIGcrSECfyV5O91lZBHlbvEnOIIfcgdvUIBuFwFP6IMee26hA3zXa7PJfrV0sxvPTTUouv33/IAWX5w9KTNLadvtsst33fKdvcvDveWrp5RR/u5jzktI8Z6yX43Lj+ykvx/E/+Z3cpTl+ePkk79PDly/PX/S9/j9/woc/PX/+F9//Bw==);lineShape=1;strokeColor=default;" vertex="1" parent="1">
          <mxGeometry x="591.5618345039011" y="361.44558056202743" width="46.96230019260192" height="114.562731143666" as="geometry" />
        </mxCell>
        <mxCell id="Mpgq73nM_WfR40BBSJ1R-10" value="" style="shape=stencil(lVfZbhsxDPyafSUk6uRzmv5HgDi1UdcOHKfH35cLV/aSzg7Stz04Eo/hiJrSw9v26XUzcXg7n47fN792z+ftlL5MzLvDdnPanfVpSo9Teng5njbfTsf3w/Pl/fVptpyffhx/ziv8vuAkUJcZxeHPvy+dyuXL1wtgvzssAD0TOwATp3VA6x7QKyUEYIrVAgIJrwNqodoNoBXKYIciFOwOVUgCADD1bAGFQlwH5EqSLCAQgxhSoxwMoCSKeR3AWiY2gFyol3VAFEoWkCrFDgCBonWJNegGXKJqkxQbReQRRetQzDACzWC09kwBVC2MEl15RAJqFqhY9zWfKD3UrHkiBs4nypajkRisXqhY8wBr1agnZx6AubJdnLmAwsbol2dqFdinUfdbKhmtn/z6qhmA+2rfrP/qYUJMSxTsBko1lH5drzpApQbII54NsVMG9o1Ks/YCC1x88+r6AkpwJeOiFxvsxWIVMaqogmMgUHbx8uDUWi9aLVEKggoHf2ZU6ohwg15XLRwCvyJU3SUH6k4ee9+6JQPf22i9RS8ClVJZDs68oFA1VusNQ1H+X/tZqBzT9LgG4Sa+OyYqzE8Sf04kLRfKf/cDQY7wMC3aG05/wohqbYJITvvLcHJtRgk2SzWOOq5NQdVStDYo0b34ujVVVaRA0R93TWClRTXIZkn3LGBsuk2Gi0mug7SKctsG3TusgwJcZwoem2K4FxaGc9O8ha2cYPbNQdi8ShnT4GqaHKDhqPW3i7qPifZjQPWTkDqJREPuJGyRuI8RKgPVbyHIJx7sXPqEdghjvPrkzeMTVxV9uF10Xnb7/eWetPzvL0b66XKpSo9/AQ==);lineShape=1;strokeColor=default;" vertex="1" parent="1">
          <mxGeometry x="612.6462316513691" y="461.90248529719725" width="19.59157413270149" height="14.170613066909555" as="geometry" />
        </mxCell>
        <mxCell id="Mpgq73nM_WfR40BBSJ1R-11" value="" style="shape=stencil(lVfLbhsxDPyavRKSqBfPafofAeLURt04cJw+/r7cLrQ2aXuK3OzdmZVIDofSxA/v26e3zZTC++l4+L75tXs+bSf+MqW0e91ujruT/pr4ceKHl8Nx8+14+Hh9Xv6/Pc3I+dePw8/5C78XXqTKMymFP8sDCZTjvydfF/x+93qBLxSrwfdKtd3Hx0CcLSFQYkCoNL+7ILREPd8npEStG0LN1EEIHPwKpVLugNCp2KBzpwSCzpXEbikHKgVktYzXg8BMMd0naIgshqCVqfU+QZOY7JaiRiWAIBSDJUQSsELvFK2UEnEAeKFu8YEElE0idXH4CIQkmYLHB1ADqRQ9vgJVSCOxeM0P+r5QsnimhvYv43OrTGEfzPhoO40Cxsdm968JRQVo1K8UAXdUhmBWAuMSsJeEEirQkGqiZk/IIKkqumqTFBMVUOXermKIsDPVD7tNq9YdZFXx2cbcYI4U32wE6naoLdvw53NbdhSweHeMxLgtozUWdXyQH60xF4cPqMRqjcnhM8I3yk4SlIFXSyex3+dhfPfaxnVBgV0TwxrfucAwoULZ+oQ+QE3TR74vFAor8FmCOrubsJpTNMN7HONxJXS4wjzinTeWIfPb84+H86xdoLoCbaAT1gVdAlwht+H+K6FRAUJiGX21nkMKBURQ57Gd3HiMrNsnneKlp2cp1PtRxo5Xgs4EJFYeI3vVnroL0pI/Gc3iQm5ExX1f7QZ0W/NCUnxDZSZxzR+wveRxCLpYQEDA1wmSUcXbNaOYfYLQ4fTKTeepC7o/jJPritfzONCQZsPhC7TTK/Oaj1VwP8nFm2CbBS9pnSfoLP7Z+8r/8frjfDl62e33y93q8r2/TOmj5SLGj38B);lineShape=1;strokeColor=default;" vertex="1" parent="1">
          <mxGeometry x="633.0971181811749" y="456.91839509914826" width="20.828222356236488" height="20.77396746030038" as="geometry" />
        </mxCell>
        <mxCell id="Mpgq73nM_WfR40BBSJ1R-12" value="" style="shape=stencil(7VvJjhw3DP2auQqUqPXsJP9hwON4EMdj2M7296EyUE3rsesVfAyS20w3WSVxfVz6Qd98/fD28+NDkq/fvjz/8vjH07tvHx70h4eUnj59ePzy9M3+etAfH/TN++cvjz9/ef7t07uX/z+/nZTzr1+ff59P+POFb/QQ6+RK8tfLJzHo+OeDn17oPz59uqUvIXWgL53Qp1Aa0Ld0Tt9H6Pj8roS+hJg2+hSkEvoYUgT6RM7fesgd6As5fyuhKtD3SOjterLRa4jtnL62EAvQVyH0OdQM9J3ct8YwdnvIS2B36csIKQM9O0+py7wWfQlC9Fs0tAj0mcinxBAV6Aexh9xD289TQyHnz3b+3d7acqD79IrPb2FkQh+X+hd9D72c02tf5rjoB9Wv1iC7vUUJg71Ag+4GF9NyufsMsg58MNgjiIjshgohKIdGdGAq7btMo92KXHra/G5EsYVMrG4GHYhCnR9JQgKxcj3M50FciUGIHuzEaRfrReSKFomAQdcn9xlyEAiNFlyJrZohgOLMeSo7kpkaBMdObWk4+kH1NkKEYCor/N3PBhjc1RRPTLWhWZh3JPJ809luqGrRkWTXiq5j7sqib0UFaLt4vuzy1EEdp2DwykJduYQC9IYOiMkZPSSPFCqL7iHvFjrDK6UHn8l5ud0JvezBN5sEWHRHe7D0wORv9HDfxrPNssaDvq9ofEYP8h/UfjL6V5EgLDuF0ZC+E3onz5Kov1i82eVp6T8zNBHSLp+SF9w8oYeQWAwd0OeDfg2+MHsz/wJw00Ij960I5kq/eD6Cm0HRgUWPXf5VKJquC7sd9Ac8PYlvsoOPeoF2QwawpdR+GtqbwdlB8oV5x+5f1fRL/NGDv7reeJJfMty3UfuxhBfhQJ1eOEYn0UElGiOGiCb8SAmBh5UggyVtC7G7kTZdZniGI9p+6ZaDsjscSjoYLDEwhoZ+3yq16+hQstV1rMyKrgxtg9Y1swze7zArTYZ6FQuzrrRy9c7fMy1tJhraL90rNT41PAdv6PTSWla0OooPoYjR4AYE+GFyI4ozPKB7xh+JAnFL8H2/w+Co1zI2WOvIFOPMlLob3+yJkCBjJSm+gdekM4nBGyr1B8saUISPxrsIccGsGwaaqDJG7sGRuwVSqNuNgd2hNix8jaESKRlDcW9g5l0PbHwwDNp7MAa8g+meM0Cza/B6xRigm2YMlUnJVQjGQBFDdQ40Fki8z1DuSInlxFqwqIgiq8lwZkxQtsxXsKaUrp7hLQOzPkVgNXgaNdwSnTExHzWGlJBBmFwTYhlzamXmqqs0uAkbwhShYcAddCWlMz2A5sYhhlM9gOIMT3I9QAHczVyZQyi214yhXEipIAML31NKFRlojZ0xzhgDlVJB0GcMLLMbA0Cyzsvy6dTNHYm9wYWNeWlmGq7NbAyZR+PkjsTyro/3/aKWqQjJzPiEpyDoFkx0wt5QHHYQWq5OTQ/HwKTkM7usOHLqouLuwD2uOLFexFYEfYPWfNOnnbXSEYTV8N6W+B2687jEFJcxyU1/4HBmuDBDY2u5I1bKUBHpziOxyFcXrr29NIcz4o7EmiXVdZBnbOVB4LsZEDsID/cdG7aWgWgW7c6ndQ3czhggP4yjyXT6BsDSlZYo1U1QDUvTlPVfhcYO6f4Pjf8d0BhB36BTniqIToxBWZe14RhgdN6mV9d36BRhFXE1e6NHyg074+Ois1/X9O62yGet94zhe2Q6iM0Jm4/GkNgdXPPRYiUDG1qxDzejMWPQNYu/iffMR+dw2oFvYQwVG3e90TskRQfqhWo6CTp1t0fwyS0kiM5XYGJFKTXuotGNleYWCjG+qNidaY0muZhwUNH4ICQKrrW0TCerA126Kd3bcJPYllYleDZJgA5w5EB62eVNm5xJyE2K6qC1Q8bau/IGc8aOXeV7JC7iTYDJOq24ZlMLrRsSTiZn5UGen5ZTHfRKHdmtOb0uGp3Q624P9WKsgRBpTsZYg3/li4O+006GoH4tabFNAUF7K5WeX3ByVSpdBxGsCy8mn7IaCgc9n6wKVrYXk1tBe7iYDAtuFc3JM4GD4ib/vGsjGHPn5Jw+H+CpIYBM5Q/+aACAJgEsdHKhmw4Rk33mO1Fx1VkHvfKFJdz1mZsX1N9hvynHFbFP6KHRkYWnYfQv5cDANRbn5gsbVeEMRnn8dOhMM9Vvxsm5YSPWJHSdI41UX2Vhw4NeePm0tgwXvWVklh873jfx+DYQcdgbWU9nDrZhuSzTF8SEyC8p9eC5vgbbaJHDLL+qKxTjz7EzrBEO6gT2NS5b9iswCs1peydNw7q+PhgK9+Pi1jkzB9SuNWCaYZnSDBNCnemeoVdNmCsj76JqQU0PvpHaVr16gD9aU89QtZse3wqxUItLG7Q3OJfKdvpC9yNm6oK1LlqAzx1oSGa09WhQYMBaI7UhgyawZsZ31l+XlA5HW92js44DmFyinm/QFvTFy9Ymri1DY3tzI6NIe11WfAG45yvW3TVMhA7je8a+rNDzz0ZyB3pW4Q7XTj/Q4H36huBAaO6euwYV6UlUHN2fh2HF2exUpGfnvyMfet+BqztCa9XhlomE1sI3TcJXBlpsD3RgoS29eSAUEF17G9hEj3xte/gfFbHiYbazIcdQh//uHy1d0tsfr7+Qev/08ePLD6xuv8dfVNlHL7/G0h//Bg==);lineShape=1;strokeColor=default;" vertex="1" parent="1">
          <mxGeometry x="582.9518391742959" y="474.3124780106634" width="49.8372690209805" height="165.70666336309554" as="geometry" />
        </mxCell>
        <mxCell id="Mpgq73nM_WfR40BBSJ1R-13" value="" style="shape=stencil(lVdbctswDDyNfjEkwed3mt4jM3FqTV074zhtc/tAVcgIlLVu/mQaC+KxeHDgu5f9w/NucOblcj793P0ZHy/7gb8Nzo3H/e48XuRr4PuB755O592P8+n1+Dj/fn6YJKevX6ffk4a/M64kKnlCOfM2n+RChf+dfJ8Bh/G4BHgyRQEKk4vbANGXrAYECgkAmLzXgETObAOSJ3YaIHf6bUB0ZFgBrDFkwBU+Ui79FQEA2JDXcS2WuGwDbCDWNmVDFsTVUtQWxVRPNuSt1h8DeZBoQ1FnIRTKAcl/sKDJWwrAfgm41u8teQvlNY2mEAMatei1HIv9Gcl/aPvkBCVof9HxlMIA4bG9erkPaHd9dAwxcNZR0GxjSsBX7rWLrwwKhuvli1gysJ4p6Ng4aSqoWmottVgayDXpOJr7wjUDw9PlSrjsQXxc34GkVhzgpq3MWtYirF3WXI4RtkRhYlfrDpLN9PkK/oZ+28XfwyHQmmWjm6/dZUte2z8xCvBB7A+ab3wrPl3voQLD73S62sFWdrU1eFZ8VTzURtCssXUUbI2WoLMrV94aXtpfF+vUvz4fLZUuXx72cpnAtgMYmODc8t+cduQcAKy2iAjH6XpNyVXBdfnVHmTbknAdkFfzguG8FkDXhGwkj1wo/UYwUQuZVChq5onTGZlUemJwIgvqbLEmtU4Ray/+X0QIFAH51kZFTxlwae12kkygXK8CO61aYPytU5cD3D3W5MgZ+/DlNfw2QD4+t/6n8XCYHw3L//tXghzNLwy+fwc=);lineShape=1;strokeColor=default;" vertex="1" parent="1">
          <mxGeometry x="576.17583900305" y="639.7020466114086" width="38.87213256881727" height="2.0296961311197794" as="geometry" />
        </mxCell>
        <mxCell id="Mpgq73nM_WfR40BBSJ1R-14" value="&lt;font style=&quot;font-size: 12px;&quot;&gt;handleRemoveTrip is provided as props to Trips and then to TripCard&lt;/font&gt;" style="text;strokeColor=none;fillColor=none;html=1;align=center;verticalAlign=middle;whiteSpace=wrap;rounded=0;fontSize=16;" vertex="1" parent="1">
          <mxGeometry x="364" y="446.07" width="238" height="30" as="geometry" />
        </mxCell>
        <mxCell id="Mpgq73nM_WfR40BBSJ1R-16" value="" style="shape=stencil(lZzJshy3EUW/htsKzMNalv9DEaIshmVRQdHT3zthCvW6b1af0ttxwO3CkMi8OeFD/u73n3/47eOHFH7/+uXz3z/++9OPX3/+kP/yIaVPv/788cunr/anD/n7D/m7nz5/+fi3L5//+euP3/7+2w9r5PrTPz7/a/3Cf77hajpaWagU/vvtX+Y45vj/v/z1G+CXT78+AvIR+zNgHqEhoE0FxAyAcqSsgPVXAIyogExfqEcJCigFAX/syQOgRgC0o7pd+uNfrgH9iP4LEwHdfaEFAIwj13d9wQQhOQCdtG2i/wKdw7zY1gJTamHv+iMApLXFI7g1/DHJV4Dq1lBA+Fo6ohc+mpLdOLfoTF/IR3InnUCWDDDcGhJIaytHcTcu0i7VIxQFBDq4erHoAKLR2pHbe/RS60cYDgDSagDVGjeA4e70zZROLfS4aLiiPRzRSesNYOb3rKHHozvAgIPraV/5RwDIUs9HngroIN7d1H1VQKMvVGeBBiqB3ra9eQAkWnTf0v8AIBvXxzZQJ8Ckiw5u7gk8ACrs0ghOlvo2k9eAeGTZpbb1+TUgbbX1AGgE8CdtlxYObpQLAIn3qM5k1U0mrgHNqUr7CTDsw05axLscEzTfGE7zFWQCBpgOEGhK8xgCyEgdZji6A5AynnHfrxNgtxwukP232oeEa7AJKIWLR4ELZIAp5xD2NlwDytGqAiItuqqasY2u9IV69OcpDVaVJswpKiDRF877dQI6n4PZOPlC26b+FUBunAECf6HLLlXkGksxPmsNu+VEsAwght30CPFWA1RZQzo63LhlbwRgVo8WPfaVPwEBbdxiR8/+Q58srVOFzyzGoPswVRmbTRqg7hfTlim1vQ0vAc+7ZHaV7PRyL2QN5x18CXg+aeMGZFAW4FmRLfbxvjVEVpVT/QdjUOTSvJH/DWg3WsNO+vngFm3kL4gsGTHFRZ9a6AQ0XvRQNWNsnLysN3Z0Agp6KKY15vO2thsL1DdhOwGR74PTfOYKovA15a2VXctFRZ6pQz011Sv7IJ6iueSJdsmYxfO2VvsmrcHxpWo/Qaoyq0tT8zZiL+30s2iseBDJUlJZqpHvdFTDXgMSXQMIhSscm5lBT7qMTX1fEqxn4SsdT9oA6VkvlYZTGkMJVql4Rc3uiwUqhYmu81CKnTRR6aZ6qZxxiJfcWwCRp1R2rOcEMIUzuy922gCRppR10XnylE5a+wBADyWpMs4cphjOn84DGdlyy6YCyOwaQBfNLr5xl+a+cAPI0QHIAZ+bTj0uGsTbANmtgThfP3/vARBoSmOT/xNgNwSEz+hUetYauaJuXUEE+QI7fkanxB3IeYd3XgVCdJfiXahFGFkOm3K9AoTnRSe7QCDei389ryEN1BrGv+bzwaXOa4gaik8Ng2o9qI0zQLoJqj3vUqqovZsLYydWxm1ocDNlDLWs0GNRAEmrMTzd1rT1yCtAkDVENOwroivbesYWXwaZhwLIAW9p67kNiGzYVyj++cbFwecQtlJ5AFB8ySihTomZQB1KdGPbaZhXABG+2DAUbxyyyBcqHpxxyO4AFLtfpFMWXVAJ1KrUwQDE7o2llmdpjZmzZVmpQ0zoDhhLFf/BALjoqC5NjFvbXgKKS03FgP5D8dkBdOOMc4q/MfCcF4MU5xgjzEYgRQM0ZAHFJYJZUI0NilRUdIyN24Xny8mB1kWLhHTvIOT1+DN+fhpDXG9uRxaqh7lKowcS6Mo78Xc9Pu94zakfkeflpPNPGLk2biD0IuJ6TRzFxYhIwZLb/4iBQBNH8XnCdnevxzsHPWCQLjl3O6DjaeIi95H9TjtOkf+AEet1nFPGk0W28SHreJB/227xvwLKw9v2/enxKeh4WK8Za3e+tF4bL2YmbKZ3PX5ojiFsS3g9vm+6/jAe1mvjixtP829a/RDQhbfxRfefyIqND7qfA+QzOv3P/GyxADHz+0Cux5cdP3gYT+stmpCMqA+jy/BEtNiLMuh4ovk2Pup8Ev1+UucpboPwarwU6DCBMH6hvIzlP6p/GTeLuh4f1OmIyDdsvPCNyFkUvY6R4xpbeB+sEYVyNO6YkFH2TY3ehpOr4ZK6CdP9TTV/4oofjRElropSu8XZq6o0KWFopaiDnjFOUlx8a2/VNcnQGrOMeYCsjnNGET593rfh5IckdQfZyU7K7wrKTFJ6V5DORhdDRjYbVdlwWULUSBCn5qJLjuCpBo1ZNqy3cYqmoQAH5Qmch3QVfZzRDho+bXg9giYTGvqVQSuLGtrkoDLTdvb81fCk+87DJTG4Ncmf/XXiQ84cNDRnQVVqQ28gaHS1YWosKNdl3zNorrthKZQLCzU0BxfyTumkoDGkhkrv4vIRrQzKyhrGX4N34ik8FZRTNiwyCMoJ7i5fdlebZUaXSumj4PLm6D8GrdtqSM+vLh//ui6VKhLfPbw8z73enKpY7TtjE9TYUNDU52dRIqPe1bJVwyu7Kvk0jHIll7pCpZdcWgk5QVaJzFj1lj3To3qxrLW7aUdcXlC3rByY4jdFl5pQLVWtc0mYKK0uH4GMo/nYFmbzNE11sq0Xw6t6QsQ4hncUMYns/Tis0VOJjBi2nFodylG26DT2jdcdVUsG9MtsfNMoDMlwdN0PAS1IdCQ+oCqLWdX2aT9fjfdRGFpv1oROQB8kFo16B7yF0ZWpBpSe6NJwXJ8W3b29iWpVVQs3Ubymnkhg+WzaehI4ytO1GjRgfaqNH7r/pJKvoopUz3EVtbwZ3/R+0fi3HOnDeLi/S9zdeLKHrrwkYNRvKWI9L9rPZdJUPum8lkuv8kbysMiE/j55AmaIfFSaxrtYT0DmZbal6/mSsVhxMJW3SSGQoPsfcf457gDMg/GiAE5Sfc6F+zmrPeJYWK5KkRJ6zLnpfcxYIp+7K3HBLOkqRNK4DBVWFFccUjgLGzXEVZHOFndf6t7g6/FFSw3ZTSlVvc+OWcziyp4GZlnKcF2m3Fnr9JsxFjrg6vyDN8pyDXDtkwagwq1VAiuUKWG8qxb3hYxGr57l1A8Acl1r03aAWNAMG0B8BQNQiV7tWqe7mAIdnGvLiBU1V50uv9Rum31lDR3r4Zqr9Iod42urhtzV/2CFUdIcn9lzrGEqGvGLE+9zqy7RwYS0uTrdGweida0DuPPFxk61PACwWs11sK28ALUTT3WZVu0G5WuC8z4rao3u3JrUkOesvlcHwLrE5M6hY7TWAFrvMbDgwDfKJu5lN4D0D2Qm+724SuDI5Z4uV5VZNHpzgNNBugZ05V/GIHBbXSl95gRBn8qQckeT3p1eMhJB6n4ELdEzABnF4QJyBiBWNaK2T2buRRmuVPJuSlHvtAEo3zVcOm0VaFFC2NXHZH4nZLUTdwVQJ+EoWlFjACx0L1oiU9jbH1XZ5+J/3H+svSiJAV35cMncBz5UNMp9/7EEYCsWIozp+jga3ukZtDLCWCa24oadhDsBA728GbWWq0yeUtIgdQ34KMd0TKBy+cV0JatGTIn+zKJ8qXK62wBiRY2YYjNX1Su6nq2hL7hg0HqFhvrLmmtIG1hkYwBxx4wFEtFdDcvi/wTMer69s3ACIu/ScB4Wl0xctE8WXvTQSqfG3Hv1jEpereGdfnut6AT0u65UXQOTEwNI8/vqe2WA3Oke7qYkZrdHPmlXkX3THRyDS+LdNyALw1oUipt3xYyuJmpehMRHO5cYrIOQbeqYRb3oiR7cNOqEaTWzc9d1kv76cNfMLhkXox/YLj9UNhab4A5+YbojY9xkvRjzLBqrfZEvtZbr1ztNJup7cFHDUn1JAVRBPV2FqrEJSo6snmhZNEd/Vk/0s2gYOaCi0NUTnRRASc1ZlJ1MLhM2gAQcJ9epTleUNiN2yk7/Ih6XD04XdjAAindwD6tlLL6ZrrZncoBpuODM6iVnlqjbWvDGmahJnnM9sEJcurk39+od+ZYuolm5prSoeE8u9DEd4QGUzRtJA33rDtK2RrcGfiNguBKbyQHd7h4KWYwIvmDWQA9uIOlbnbLuhUhyRntzsnTT7Vvda0EDM/irU9Z9AeMU+eKBO8rT9aR5vTm5eTcqYbp5c2893eYf6ePGV33F7ObdQBcJuXkW8+KBO26Xv3hCb2IRfesat7tbQ9NYy5yoKptLiMzJ8dOq4dC3p3RexYBVCfCzmOZfqI3jruuWLw4OG1+TewFscqQ8uWfPJoZDW9QamzfC/wrgX4gkVtmCUodFrmlKrohuAUCW6tTakMnB++qfbuMAk0+ivHkU14CuWuPBaXmF8CeHn2gaqFgAzmbN9+1rdRZlYoi2usjGjbgaQN9jnBg1rln93buna7N7PZSD8Sva46aEKbzkyAa/E7t6nP0XaNHpSldSktC/+MgPyy6AN3IkGleAePMFZ4LI7tbk3pScWJFS/VuGE0sianIcjh9lra6T9+5JbfdMzQLwLr3z0e57gP3h7Y3wnz798su3J8Yf/1/fFLd/+vYeef7+fw==);lineShape=1;strokeColor=#FF9933;" vertex="1" parent="1">
          <mxGeometry x="576.0513646839204" y="265.5772957158043" width="381.8821934195792" height="422.2860478100237" as="geometry" />
        </mxCell>
        <mxCell id="Mpgq73nM_WfR40BBSJ1R-17" value="" style="shape=stencil(lZdNctswDIVPoy2GJPiHdZreIzNxak1dO+M4bXP7wFUZi7D8NN7J8gcSBPBAaOCHt+3T62YI7u10PPzc/BmfT9uBvw0hjPvt5jie9Gngx4EfXg7HzY/j4X3/PP1+fTqT56dfh9/nFf5OdplKPRsF9zG9EH0T/735PvG7cT/jCznu+Foo+dt8pdDzpRAzXD90fM6UgD+RUs+nRCy3eUfOdXzMbYVFPlD2Hc/qIVjfcwtHM9AjhQQ2yCSlM/AVGkRPtT+CEBfAV0q594gK4JOn0POeCvAnZeKed1RBhDITe8MHwBdP0Rn+fw6XeWnHm/EZVKgWcDJ8BLwwSTDx8SCeoukMJv6wgtxVjTJ5kAARcv2BY9txmU9XmqEAAlqldYQLLxXwgdhomCLgSyQXDZ/BeXOyCcbrp9r0MfMfCUA1b+PjwfpRyLONP4hn/NL3LL+gJSath75Hh5bwZT5SvCpQFE/Va++/CgDxlbLlkcC04zsreCTgmux5cYOQYPXiSMD6Upq7swaHBK/1b1o6FeSPUO79Z6qoQdzJ10oivf+uebicAKbcC8wLzHASa6D3OOpZKoHYG+g1yegSUwn2OdB7OIAzqGiqETFWparY7KCTBCODbNvEyqiS9OLoDVZmITUwQlsZttTAKEFrF00rKn0xs4E2G3zZR28NBOygabLTx1fub40rnKxBBVHi1NJ0KW/cMHQAMjfsqgXbFrzilC93HlvnQC/3BFabzHXmUFe1l/hKadw76K/z+nD5qngZd7vpo2T+v/0K0VfTFww/fgI=);lineShape=1;strokeColor=#FF9933;" vertex="1" parent="1">
          <mxGeometry x="576.3644313643263" y="268.78789161054215" width="3.271194824971022" height="25.40940000334343" as="geometry" />
        </mxCell>
        <mxCell id="Mpgq73nM_WfR40BBSJ1R-18" value="" style="shape=stencil(lVZJcttADHwNrygMZj87zj9cZTlSRZFcspzl9wHDDC0gYbt8IzloYmk0MFO8e9k/PO8m4Zfr5fx19+PweN1P8dMkcjjtd5fDVZ+meD/Fu6fzZfflcn49PS7vzw+z5fz07fx9/sPPBScU2wwS/rV8SIWk/PnyebE/Hk439kFIugHERCVsA9RDZwOQSlG2AVEDSAYQOsW6DciRulhAIAYeqgJs0hna9zoyHPZMzMC+USw2IOIE7Ps4XkmghP7fKVdj36kCCtTeURAKpQhI5jXBlbRILUMXf4/XtggUOgQky0HUKjdYVMdyEioopEbiAJky8lAp2bKqFgLyUKg63hJFRIT+z5Y1MQnykKlErzbYGnlI5VZtQM8zwPWqUomIW4u4AmSUYStptjkUKsiBHtuq6oxCNao+A8ad1yiIs0diUPvmOHhPzclOi0oVMaD1duMrEaM+VTnbEazzBVZIATYD0ZzwgPFtp42Ic3A1TYEEj8hkSVPpwAGjRXQedE8g2j4KqImCTToHqiCkrACrtdwG9VubLdukS4VS0E5zy7aWMQW3tnO3IbVMFexObWXr4K1X/h/RkMraq4x3oZbQOWiUob3YCTnPGxAQj8232gc4UZli9AXqgDP2BaoqV6D+fxanXjbQ5UXtLWGlUAPi1/jt/wvDJmUqrkcznBW6tW2LZh4ttcWvW4EVxv/R++b79vrwdrl9OhyPy9349txfhvXTcpGO978B);lineShape=1;strokeColor=#FF9933;" vertex="1" parent="1">
          <mxGeometry x="575.0488302934004" y="291.7525769335788" width="29.03402231332022" height="2.9306058359635534" as="geometry" />
        </mxCell>
        <mxCell id="Mpgq73nM_WfR40BBSJ1R-19" value="" style="shape=stencil(jVbLbuMwDPwaXwmK1IvnPv6jQNONsWlSpGl3+/elYMgNE5vNzZY5FjkcjjTw3fv26W0zEL6fjoe/m3/j82k78P1ANO63m+N40qeBHwa+ezkcN3+Oh4/98/T+9tQi29Pr4bP94f+ESwUIG4rwa1pBwGnhcYrfjfuz+IJQxcQTpLIeXxlCNPECIuvxQpCr/X+A5CQktX/uAE5Q6zog4FxhR6QAOTpbFEAygFwgkFO0QC0GUBGKx6oA25QEQfI6IGeIwQIyVCelpG3KFlA604sAlkthCEN0WKICxbJUIyQHELRoNoASQJwaQgS5aFzuKzcCYgBMfkpWrZQB2S/a1hCUJaeGRqttnJL0S9+slBDImZ8mDNuFAMGpuCnP5jOL/UZpB3UQR0fXw8NqIY60F+Yz5t6WGy0gEwTPM9RkbBFFaXOKaC5m21yLa2PNJu0OkvrELvdZHcX6qhInjrFeG/cvACUxWWc9Y3pZq2qktmoRQGcLSpDxsmpyxico7daVanWNsnZXnBsnrpgYkq0gi5sQQrRdUJq9cb6WanJPhlmX8zAwoCPtvHAauo6n7pNskwnYS4i6v/34kXd68mzRa/cFffi5bLyMu910Vzn/fnk50aXpYsMP3w==);lineShape=1;strokeColor=#FF9933;" vertex="1" parent="1">
          <mxGeometry x="803.3017290376995" y="717.0791733369047" width="2.393892112182393" height="2.0947588065861344" as="geometry" />
        </mxCell>
        <mxCell id="Mpgq73nM_WfR40BBSJ1R-20" value="" style="shape=stencil(rVbZbttADPwavRLL5Z7PafofAeLUQl07cNzr70tVXUVLyVMU6JsOzvIaznKQh7fj0+th8O7tdr18Pnwfn2/HQT4M3o/n4+E63vRpkMdBHl4u18On6+Xr+Xl+f32aLKenL5dv0wk/ZlytlOqE8u7n/CVQ5t8fPs72p/G8tg9UXGfPnmK4DyiVQukAnok9ADhKvQdRD/E+IEWqJoVMBXgIGhJ3AD2C832ABJIeULiVbRegKboeUDMFAGBtg+8BpdVtH5BJ+ippJz0ChPZ7BfjTyn2Ao9ID2DlyAKEppo0H0Dit6iYiSSAiqtHWKIKiOgrBNiEBXizZLfYJEk+JauKPsMmegjk/wPOD5XUVKmjUGolX9gHky7whnZAAB8qhmiwgAbVQlpZkU/aAQjs9iORASJOYmKQTOUAiBfgNKxh5cC3iFe2QWrD+3swByoFjq/oKkNAgeHJiARWEpHOymbQKItoLKKKiUsq2RAXEo9IitgcVnK+sMERNVAHvHIk5PzaP/8WepV1hDZBrY/p+gbLVoiRwEIJvV9hyqUXKQN9jtPesaJVBjZJvYrLou8ovaFqqxH2V9IrIQF9ybJvBcvU3Rdu3X+T23Z5BBrnYyWQoX7pZGAF2cNcpYmmnUgCaXHQRsec7tOnokFRrDzhR2e5eGg/e1UI29gmwWocqG0aQR/bFUo5hfycR6fP1cGhW+8bCaTgD/7zM/tVeH94355fxdJoX7/V/u2nrp3lLl8df);lineShape=1;strokeColor=#FF9933;" vertex="1" parent="1">
          <mxGeometry x="802.7206154998355" y="705.7027612657575" width="6.686112541586131" height="21.393063703423746" as="geometry" />
        </mxCell>
        <mxCell id="Mpgq73nM_WfR40BBSJ1R-21" value="" style="shape=stencil(lVbLctswDPwaXTEA3zin6X9kJk6tqWtnHLdN/r5QNZQNWEKbG01jRSwWWHKID2/7p9fdEPDtcj593/0eny/7IX4ZQhiP+915vMhqiI9DfHg5nXffzqefx+f59+vTFDmtfpx+TV94n3EROE+ggB/zRkmQyt+dr3P8YTzexFOFrAGZoaVtQCSoBiA7dRuQKpSkAAmB8jZAMo6oAKEA0zagISRSAArATkqcLWmE6BzAxXIWBl58BdYMCBI78Q1a0yXy82Eo+vsNgseXezn+t0Bs24gWSlsAU9EQ+s4mZa2ZiJycvpOaWgADOZ0tohWdUlz6ZKsr0h0AmwMQlXRnTzp4VYqd4gJIwB6HAC1qAEL1TpCqsxYuQ/OUDlD1CYR+a0QIxmEgR7dIqDOS1vNmIXdVr7NWve8XiHY20atQ7ele45snQYOsZ1MK4OXDkNDUp3mDIHZrFKPOaN2xcSG4IAoEjwJbjcWP0B9/q1n2T2hA2mBkEpKvAt7NGnkpfRbQqLfZ4qnRBRQZFF3WXLvtr19s3N2hAyr1cV2/OoN11ZbcaabWr4EOkGlK3l0LVfvLTbOspwRFF2lqR+eAAEVTFuVrcBj0p8ESX/rVtRGPhnDsLr4aj9ZQWfg6twjaxm4Z2LH4u1GTtiqOe6E1r1rdWw0hm/joCkxApuV8famzW8yodvve0Je1U8hURGfwP/vc/He8LK5v25fxcJifxrf/27ewbM3v6Pj4Bw==);lineShape=1;strokeColor=#FF9933;" vertex="1" parent="1">
          <mxGeometry x="803.5705551803171" y="716.0054141912042" width="18.374977216227833" height="4.473748610635563" as="geometry" />
        </mxCell>
        <mxCell id="Mpgq73nM_WfR40BBSJ1R-22" value="" style="shape=stencil(lVfLctswDPwaXTEgwec5Tf8jM3FqTV074zh9/H2hauiIkLSd3BRlVwQXyyU8yMPb8en1MHh+u10v3w+/xufbcZAvg/fj+Xi4jjd9GuRxkIeXy/Xw7Xp5Pz/Pf78+Tcjp6cfl5/SF3zOvVkp+Ynn+M78J5Oq/F19n/Gk8L/Gecu7wzpOUfULxxD3BCzm3T0iVQk+QRCntE2IkJx0henK8TwiOak9ImSTvE4Sppo5QmDLYtF+pVJUQ9wkuU3A9IVMRQEjkQk8olD0gaF/7RmvrAyI4itESCuiDrs+9M5iJQR8ilbxaAFQkJMniJYAdtP0tJErAeUw+2x5kiGfz/UQZ9IytQDU2m2y7iLxpcaAK9hvswVG8AD0zOaOnUAX1ON1wWBFQAzwVthV55Oq4cnVon9g7BiVYTSPILz1otgmJIiopU+rDQl0RgSvcPa0WtgtIpbBxDjxawVNYnUyULnVVUaUKRFIb1xUeFBRWXatY07b6QqEC4pQprhRlYOx77CxaxiC5uKX/whMM6/kcPtuDXLTBoB49BtJ7LmvSgQZox7h3RIqth9tRWqj22RUZXuN6pRoPidoWeShQ7FfQtjskkmZJ6QiaNwHEUXE2r32TbW8Scb3tHLwOirQkaXhuFW7jY1PwAx+AQiXbvGZy4BSrabIYPLpedVQzcX3P7228ZnM0eORSNb2330dz2jTRWP1RzGmIOGfwKCWm6aHXx7fo3rnOVjkhbQrbW+Bzs/J/8frwMZi/jKfTPNcv/28HeX01/wiQx78=);lineShape=1;strokeColor=#FF9933;" vertex="1" parent="1">
          <mxGeometry x="818.7309922363324" y="703.604457187555" width="8.56066793996577" height="25.02853284777374" as="geometry" />
        </mxCell>
        <mxCell id="Mpgq73nM_WfR40BBSJ1R-23" value="" style="shape=stencil(lVbLctswDPwaXTEgwOc5Tf8jM3FqTV0747ht8velqsoWQWunuckyVgQWCy4GfXjbP73uBuG3y/n0ffd7fL7sB/0yiIzH/e48XurToI+DPryczrtv59PP4/P8+/Vpipyefpx+TV94n3GOmZgnmPDH/Eop6t8XX2fAYTyuAEXJtfEuUOZtQBYKvgFIoQBOiIU0NgDvKYZtQFAqbUrRkfhtgBYqqQGkSFoAgElzA8iJktsGiCduiy6JYgQAodieUPLC230Ak7gWUEjSNsBFy1IFJARQ4tJ2+iaW+9ogl+0JRUDjKHTxATRaFgpXHKHvMyW18Q50rRuF2rR/FW3EG2WXSALzl5bQEshDftjU6ymB7+eOT08KNOSEfLIAAQRVDal2J4DBcVVi3gIyokjs8FeOoCa64a9NQKSK7wYnkeITpJOdoFl25EzRhRic4DJxNwgRNe7K+nrSQEqOu05XAJB2pCTdZQGUocuVvop3KKFlUFacIiGxdZ3atACuono7mvwjBZDPZ+Pz4nlXQ4gU0SDUm6ctOAUoInWLDV9NjReV3AX4aDXhFU5OyBTbGgRbTkyLX6ysH6WUqoO0oyaUQc01PhUT70CTK4Xaft+RByJNyU4BUwZXReZFw7d4BfVmtSpimH/VjM8mHvlrLtbQeLHo+34sls+aP3D8yY5sfAZ8TjtNsvyj/aBuKEZxOP96R1k9IPP49DL7H4D6cNudX8bDYV691//bXbu+mvd0ffwD);lineShape=1;strokeColor=#FF9933;" vertex="1" parent="1">
          <mxGeometry x="830.0312020324429" y="705.6796850132403" width="6.230547245284375" height="26.069779628229586" as="geometry" />
        </mxCell>
        <mxCell id="Mpgq73nM_WfR40BBSJ1R-24" value="" style="shape=stencil(lZdNctswDIVPoy0GJPi7TtN7ZCZO7alrZxynbW4fqCrlEJJeJjtZxkeQwCMADXL3sn943g2eX66X88/dn8PjdT/It8H7w2m/uxyu+jTI/SB3T+fL7sfl/Hp6nH4/P4yW49Ov8+9xhb8T55hSHinPb//fkC//Xnyf7I+H0wd7z8Spsy8UZdtemLLv189U8zYQhGLtAF0ipm0gFgo9EBKx2waykOuB5CnzNlBi20ADcqbit4EayPVBLbX5XAcq5dgBNVEBh3aseeCeyJRAIkYXrgcKCdpToWo8VGIgjXED2QIJxFXP6IIFKo5rMGK9xWGd8FTEuoCpcxScBQJQU2WSYONaAKBSyAuAQSIUsHHNJHhLNq4JXiE9tDOpjjgRnkKwQEAeAvEC8MhDtHVjBJC+NSaLMwSs77TwgCqTCiEuLmlCZ1A1l0XisIfSFxrdpIsQ8N4CqG6M6xlA5Y08pJVLXQJMHPc37tM7KiTJuqhI345KtEBEcdUmtwAYiEmvXCk2rgJO/XUgtCIxA3OnXO9aiXyv71xbNVwFklgPScsnqN+htjI0N1LcqiW0fjC3ak8JDQ9aZ3pt6DghQH06nYgp+DqeAH1zK+7zEYjB+ky+14XAKrbouXN32TIvxhwNAWznGAdFrYFwxpyBfrwdehiuLjbwDKtvaAPUzZyB+pONDK4QuZWom7lDHda2DlURmlvsPdGLiOL+xYn5c3t9uI3nT4fjcZruP/5vx3l9NX0KyP07);lineShape=1;strokeColor=#FF9933;" vertex="1" parent="1">
          <mxGeometry x="832.5353853251552" y="704.1667870989581" width="13.58133636184783" height="29.302108061959093" as="geometry" />
        </mxCell>
        <mxCell id="Mpgq73nM_WfR40BBSJ1R-25" value="" style="shape=stencil(lVbLctswEPsaXTHk8n1O0//ITJxaE9fOOG4ef99VNVK9jIVOb7K8ELkAFuQQ7l73Dy+7Qdzr5Xx63r2Pj5f9EL4NIuNxvzuPF30awv0Q7p5O592P8+nX8XH+/fIwVU5PP09v0xc+ZlxDrhNI3Of8wlf4/OfN97n+MB6v6hXQnAFIRCrbgNgQcg8Qvw3ICgh2Swk5bANqQ7UrOCTSQhPkvj6w+oQgpj6gkf20shCyNuAW0m4DGrwVYeqAraAi2BWCRxUK6CiKAakRQEW1K6SIzHoo8NYXOaAwQESxMqvwlFaB8wZQViG3fCF2heKRKgHkfhhyRiVWrcqJdUaqC9G3AQFiaY0VKRGAoHRKZzS+Qu+l1b5bPcRo3Rqpl5SlDpCplWpdNrwugEgCo/neGA6OGylaigQhknrV1DJUIay+9vvxBY7Njg5bF5EFjYjs3drhqnLjw6MZaQHJ8z2V3kfZ0T1p6HUhlpUmFjGCZm2h4+mZzjcBxNo6vb5Z4ZQGfvR0zlDeImlanZA7qR03X0WwW1I3CgmxDEm2XhBJJMU+L3SaMkkk6VXTAGGB5Bfrrxokepq7hfDVFZr7ZHi+GFsD0pF+3eKAq3xspF+HagWLjprOo9nZDxoWxBF6Slp+NE0bmYKEaM+oiWHyfb0qWH70+pXZlP3nde3f9frw9274NB4O89Xy+v/+Lqmv5ntouP8N);lineShape=1;strokeColor=#FF9933;" vertex="1" parent="1">
          <mxGeometry x="829.2113944783125" y="723.0244226040131" width="10.473643399041546" height="2.485260429285805" as="geometry" />
        </mxCell>
        <mxCell id="Mpgq73nM_WfR40BBSJ1R-26" value="" style="shape=stencil(lVbbbtswDP0avxIUqetz1/1HgaaLsSwp0mxr/34yDDUWlRysb7LMQ5E8vE368LZ/et1Nwm+X8+nn7u/8fNlP+m0SmY/73Xm+1NOkj5M+vJzOux/n0+/j8/r9+rRILqdfpz+LhvcV55iJeYEJf6xXSnG9+L4CDvNxAyiJJHbyzlMIAMBUUgeQSFHuA7Ij37/ghRi8ELMFRCYBgOCbvgZIGZqkhVwfpBoGTQBQf2sPyKQgrKqUXA8oxOU+QHKjaQOIwCSRRtMGUADARXJlAEQAYHJ5MMkDHsgNFiGiXdO2CaoA/UNqL6w5JO8NB5EU6BfKhuRAHsinwR7fWL/tr5DPFiAgT10esqimOgBUClgtwAEXlCkNJqHy10AabJBEAaBymiwLqBJqcYpJixpo5ENuLm7yiFFxhqH8M2XkdM0kE9ZCATAtnuIAKCg1PtvJZxu+dvJ7yWSdKI3L222V4lDNghoMRWeDFADRTCqWtgjl2bBWLQTt6KvydY6ZMZIS5KC2YO4jFEqLwU2Aryb1IfKOAuDM1xeG2ekAZ0FIh+mMWlhQKr0PSooe8JR71gSWf4hUehYcJZBEy+RWI4+KP1bS+iHF0J5YbEtlGNDkWwpc5VGVZbZJxK3D3pYPlNnIo9WlblNmBjKc+rU7myp2WH+twWLk0cxf+lpvv1BCI/yr++Z/AOrhut6+zIfDuh1v/9t1uF6tq7Q+/gM=);lineShape=1;strokeColor=#FF9933;" vertex="1" parent="1">
          <mxGeometry x="848.5396155231292" y="707.3099542371015" width="3.4691206679271525" height="22.791529099803196" as="geometry" />
        </mxCell>
        <mxCell id="Mpgq73nM_WfR40BBSJ1R-27" value="" style="shape=stencil(lVfLbttADPwaXYldcp/nNP2PAHFqo24cOE4ff1+qwiombY/RmywPKe5wSC4neXjfPr1tJg7vp+Ph++bX7vm0neTLxLx73W6Ou5M+TfI4ycPL4bj5djx8vD4vv9+eZuT89OPwc/bwe7GrVHk24vBneRELtf7vzdcFv9+9nuE75W7wXKim2/gYqVdjII1KBQaZJBqDzNQjMOgjgGFQKqV224AzsQ2pBRK5bSBx+FsN+gjyukGlYlnqQgxYTUK9eIMCDHIYWVoNIlUQUu4UxZ6hUgeHLo0ye5aQMmqlYM+gLhrIdEsUrYFmWsAXlHW2eZBECXxBOWlO3W0Qfd1ApZatvKkhvKbVijXi6pGLgChkgE9Ug8EHSiDLPVOtDh9Q/GWU1hmeAb5R8HgJEN+TwyNJ9E7F84OaheJdd+Hh4Cbe5lfLDPGp7c76T5RRvtqQyypp2Fl69fxnaqB1ab6a1UMZZX1LD8XVJNZDohJcPAXFI773Zqwfoej5jHfq0fpXB7i+gu0QTIz0KZQtPsLGrvyIxYdB2C3+k6/fiPRTKIvDB+S/+vyqf5SvdokviP9OSTw/iP/uxxLD/hDDer7PBKNBed0AnzhYxc33BSTRTNlJLo+iu24QvCZywmOMx+AdBlUvSWiyCom7sKxBXp/dTNV+YR48oI/q4G22LypvDFhKF4V5lpnrdyLxo2lODfiEtiq2mdZugIpfEyvuinNHfULJnrrg60G76HYJtt/su5F0KCUe2l+rR+cDwAd/49LrTcR4y2issNqC79a6HCSIzy6ejJcDisnjUfxxDMcVn2D7vSgDxTMoA/HdUfERVYFfhmY8KrPB3hk+Af/F60HxDdW93yKUT+Rf9yTHf4Hn/d9l8T5eHz4305fdfr8stuf/+01WXy1bsDz+BQ==);lineShape=1;strokeColor=#FF9933;" vertex="1" parent="1">
          <mxGeometry x="849.2992209589347" y="701.5512006493091" width="22.089229975339023" height="25.422341912231595" as="geometry" />
        </mxCell>
        <mxCell id="Mpgq73nM_WfR40BBSJ1R-28" value="" style="shape=stencil(lVbLctswDPwaXTEgwec5Tf8jM3FqTV074zh9/H2hKkxE0N5pbpSEFYAFsOAkdy/7h+fd5Pnlcj593/2aHy/7Sb5M3s/H/e48X/Q0yf0kd0+n8+7b+fR6fFyfnx8Wy+X04/Rz+cPvFeeYiXmBef6zvhJy9d+LryvgMB83gJop1s7eOfIFAJhCD/CBlsdbgCIkqQMER0VuA3Ki4DpA8sTAQ6qUeg+FqYKkkxD3OSgNIQCAIxd6QIEsxURcekCFOYRCIVlABDmI/m8AVODBFypDSIglV6gOgAySdkxSLUBQ0o2SDasp3rZnimLLVqC9N/EkmLG0aDf2LoNZIOkbtUYKiKBMyTgIjePrNcsDo4EyaFRRDzwAEihBbhlucmAAiJHckPSbz+uzo1UrllXUFct0Gg8aJCizysPb500fMQgplmE6C2XQGFE10XRepYA625MMgIIK522vbqT8em9o1sN4FtR9ymuwgIhoasO1YakgwSAZRNIBkoZVpXVGovpZ+2jj0bWA5EL1yy4ehxnVUekZ0tWWEKA0/dksTwa7UDnNfUi6nhnk4FNb9+8eqAIJU4WJ2dh71KeuxfseEEUQjyRbBF3NwD4IeWfskaQuk2n/j7Qi1ub+wx5NWSp2CBgWLGfbQ9yk4/rtKFrtYqim1Q33NThji9Zae7RAVBIMn54CnJlPXjj/A6CHj/vt03w4rNfj7Xd7H9ZX611a7v8C);lineShape=1;strokeColor=#FF9933;" vertex="1" parent="1">
          <mxGeometry x="885.088080710455" y="700.9813663658065" width="2.1961280609723057" height="26.21183076685372" as="geometry" />
        </mxCell>
        <mxCell id="Mpgq73nM_WfR40BBSJ1R-29" value="" style="shape=stencil(lVdJchsxDHzNXFEEd5wd5x+ushypolguWdl+H0zGlEVwpl2+UaNukgAaC6dw97p/eNlN3r1ezqfvu9+Hx8t+Cl8m7w/P+935cNHVFO6ncPd0Ou++nU8/nx+X3y8PM3Je/Tj9mnf4s/A8cZxJ3v1dPlTi9P/D1wV+PDzfwIVq7uCJXN2Ge0eux3tKvI0Pvm3X8I6ybONjomzxzm3jk1AJHZ7Jh218CeTE2BsBvkaSHs+h3XDdn5G4N0BPkAIIQil1hMgkcZvA7uqSqw0CjZBM3AetJCrAiKqaKb2IKrxTySS91XpmAbLLiZh7v7oPIq1CM0cIBURgStESkLaTSrPXklTK4IQoLbJXQiEB2aCEzJbgUDpIu8CNXz0+QYwNiQI2OhkbIhS4ujUmS2BE8BT7FJLQLrlOCJTyQAAplOKKDR5dSZPeWUIF+k5piHRqclwnaJi8DRzKUSWwIRQs76FSqlqRltRLkiyhIKOjrTOaQG+FZCvSMmRcAGpVLdUynIDVKjzYgAmm9CkB2TBnnAxxAOJTglVrpoSrRjGB01CCWqk2BCMNVSuKNBMHS3jbYitwlhBa39tKUc8DAef05wg5UBBrg4DAaWc3g494qkB81dtI19xa8TpB7CxQIhXU2nVUMMOVQGkoIfSEqH4DKaptOfVX8rhlVWc7EBfKqLNrfzADlmsNYD3StYWpETIMQ9RKaaYZWIrD0B0yrGI6oBqfqodA0HiYENVg2BtshdEdElB2tNmseDQqBYpxwIPc9LYZzhMrMrhp+AaPJgYmZ/AezoajgDzcf6jYzG3G38CbLqV4h/F9G2QHi6NrLexaV2DCOCqmHcDbcPPFuzoTuMwnX3cfwnXx/pB8OhyPyzv09n/78NRPy6M13P8D);lineShape=1;strokeColor=#FF9933;" vertex="1" parent="1">
          <mxGeometry x="879.9087803938974" y="704.7301078706676" width="21.25835953391719" height="26.27621927734134" as="geometry" />
        </mxCell>
        <mxCell id="Mpgq73nM_WfR40BBSJ1R-30" value="" style="shape=stencil(nVfLctswDPwaXTF8CQTPafofmYlTa+raGcfp4+8LVZUjgtaq7k2Wd0UC2AXBLj687Z9ed11wb5fz6evux/B82XfxUxfCcNzvzsNFn7r42MWHl9N59+V8ej8+T79fn0bk+PTt9H38ws+J5z3FMrKC+zW9CRT5z4vPE/4wHA0+V3jvKMg6oRD7+vuOSl7HZ/L1fmKiHNfxaf7ajO8deY/wocZzIunX8UwpVvjMlMH+fSKuAxANACQoCJVQEYqjiCLIdoUSqaAQMiWpCT1lQJBA3BDEgSKraOosFc0qUgVTaWLwARAy5WQJDhGkCVpXAMouhXy0hB4oTwncBO1RlgqVNksbhGLr0OMYpHabJjriFVJDKAmmVYxaVV24Dt5bAiNp5LkBLQgZxcDEqdkSFp+LluBQpTXrxWYpAYsqwXRJffPXtKsEs0KaxbJG4N4SAtoSz/5ayJtR4XjuEQsCXKFtM5sWDa2nUeGkMVCkiAgq76bNCKqDGohtWpHjvHPknC31huWKIagesal7toSMPFpu6Bue0XLDclAbdxNC0751kxtHkJ0zrpleO+VsoymwlSXtdIYg5IA4dDZpTRpAEDosSV0IybO+bq9AqQ46Z3iyN9rTYYbBcOLs5JCuBlnZj9QtIEY4vPXzCbsY9gIogeq47knjMAm+z/NB8G/D6nVSu36eMoiW7SjpYXXVU3UyHZzz9BDzBp6AnGXutR9wDzIplNnAkVmKnde24CJ3bEarGC0exap4cXekUn1lzjJcqfHSYvFICP9zKcJ4ffi4gb0Mh8N0gVv+b29s+mq67cXH3w==);lineShape=1;strokeColor=#FF9933;" vertex="1" parent="1">
          <mxGeometry x="906.7466640676162" y="706.3098961322389" width="31.88921502337268" height="31.522359400505355" as="geometry" />
        </mxCell>
        <mxCell id="Mpgq73nM_WfR40BBSJ1R-31" value="" style="shape=stencil(7VjJctpAEP0arl0907OeHec/XGUcqBBwYZzl79MKNYLpQY/yITffBHpP08vrRVrJw9vm6XW98vx2Oh6+r39tn0+blXxZeb/db9bH7UmvVvK4koeXw3H97Xh43z+ff78+Tcjp6sfh5/SE32eeUEgTyfOf8x++UnD//vl6xu+2+yu8q+RcTyiUZJkgejv3hEihLhMSU/AdQc/MvEzIetsQPDyhOoqlI0QqHuADZenw3KJ2Gx8pssG7APCJxD6fgcM1k8sWHyG+Wryg52vKqsFnFJ9Kvo+nI4/irwlzBl8LxFcjUsrAX8dz/BpBKKIAVSqhwwcSlLDa9HUREGcYUJOA2CK8hJfe/kQOBUj1yNYegNeKcX3FFPIgwUnj3cfHpXbiTUJIraCuuwTwWGJTwJwBPROEVIRqf0LUKgI+BNdqZI5phVUWg20r+U4fYkq9rEuBsivJykI7TQQnlEyFLaGCTqQGhD5x2psSJpTeB21OEcyDiWB8yBTAPCjzuJgJBSZOCdwXm5YfAy1plEw7VULCeTAT59JxbhN0gsWBANRaNK+jScgHoZwsAc0QJXgewgp6QPFUjUkZi88Pak1tji6ZJCasEc4RJdRBrYzEF4YozYFeSlweCgiKL7VyuSKgzqfii8ESMoqStt5onUYbmBJMX9I8+Dslagoot/6/eILxQWsQ17QM4iuo4rJtlZeRupSHPBRQQYTYxsc8shhvVSqmMh6B1fcxQlJtmETo+g20EZlKrz490wEfdIzmXkzZtVzeJPhhNdQxilYHYbsqSYVDTue4mVm6XDEwKVZbo45bX7g9d7Xf2/UQbmOf6/znOn93nUeC+N/rvC51vT1aAXBb8M3emVDgiqQLvetPmFwAIdUiN71OHNzP9Z099jHS3oRUNMx+SbAqxa7zEx4038FjxTvwfNe22Cv7UdVoTVWLR0OWbZMQvFiwTbG+AaHta6wZDycBt2hcJbhCe6K3eOSvaz15xnNbohfwZn772t74FvJrvun4WYEL+vnYh6/7eL24fGV72e5254901/ftVzn96/xFTx7/Ag==);lineShape=1;strokeColor=#FF9933;" vertex="1" parent="1">
          <mxGeometry x="934.0717342841349" y="712.5226843397345" width="22.251081331420977" height="23.34458212731821" as="geometry" />
        </mxCell>
        <mxCell id="Mpgq73nM_WfR40BBSJ1R-32" value="" style="shape=stencil(lVZJchsxDHzNXFEAwfXsOP9wleVIFUVyyXIS/96YTBgPyVGnfJulm8TSWCa9e9k/PO8mxy/Xy/n77tfh8bqf9Mvk3OG0310OV3ua9H7Su6fzZfftcn49PS7vzw8zcn76cf45n/B74ZVC3s0sx2/Ll0Cu/PnwdcEfD6cVPkUSbvBOyLnbhMgUQ0PQQkVvE4JS0oZgR/gICEyhNSkVyojgSXNDKOYV8MFM0tISEikgeHNRWkImL4BgJrU+WGJcuk3QRBJ6QgYmOTuvvUGYiRkwZMOmBLQhntxgkwNe52rxKkoorIFC6NOAzveUOwciMcDHXqrFTgBSFabc6UIpgwskEQ8E9iAHnmLngqMIblD77XpCAMXgmVR7QgGy8HHQtlIAsghCMfdhDUDbVp/SmRQoIV34mtZVomGPkcHpTIyiFElTL20GJlmTi7En/A3DNkEo555QAMGZ1AaTUOIkkh/K0wPxmbz90MUiIIxBSlW+N+ozdTGKuEt+Ev+vv60GQwJ411enTR4BePOu9deyjvqLddSuwUihAALqhUpbzVZqeIxIa5Grs3Ebn6i0ERWYMBuE3J7PVYTb+GHoWLdBAgpUSodH7TFprdoVHtifB0UwHlCx3xS4pnwTX6QuHh/xRP7Oe0dbYa4GbBuf+5pXEtAjViO+EmxGg8b42XXw/3h7+Ng9nw7H47K6rv/3u6p9WvZcvX8H);lineShape=1;strokeColor=#FF9933;" vertex="1" parent="1">
          <mxGeometry x="976.0902608903853" y="712.5562256313676" width="2.7766459519142175" height="18.462580655553356" as="geometry" />
        </mxCell>
        <mxCell id="Mpgq73nM_WfR40BBSJ1R-33" value="" style="shape=stencil(lVdbbhsxDDyNfwmJ1PM7Te8RIE5t1LUDx33dvtwu5Kyoaor8rSWOSQ6f2snD2+Hpdb9j93a7Xr7ufx6fb4edfNoxH8+H/fV406+dPO7k4eVy3X+5Xr6fn9ffr0+L5PL17fJj+YdfK04oxgXE7vd6wBTd34PPq/jpeN6Ie6bcyztyQJ5ju36X93UuL5miGHtSmMuHSr508okSz+VjocydvHqEAEmo+N4gRxlYlJhq7gCigAJMyhR6QPDkPQAo5X0M9EQQSUKhJ0lpYOB0cAOrgRwClBalBshMBdHqKfQ+FPUqzQFZNfSJVDI5mQNqJukjXYU80FCLjYMCMtJQSVIPCBQzBJSe1hph8img1h6QKCMfKiXjQ6aCTCpUjQ+FCqa19gWqOiNIPrU4VQuoCBBJ8gBAPoRWLhsAahoaVyfWaaiBiQeWHNLgG+ubwNUIAdX4EFvjmZk0Jh/qS0v2mzhoa0MmBRJnAYwDF40Gbtk1S406aHDIpEJ+qGk0rjQRvLMsMS4gM9/UKwTwztkJp24J6PdLFzBO6NBDoa6N9k32RVSjZYhchQNCDbC8Vpwb0U7FDQ+zbIpDkWawCXwYkGMryW2CA5piao3rPlJSa9D/nnLeLidZ8wtoEN9K8g5wsG/oqmDasQ5KVBGiNdcDouBdwNv1JNzLdjba2ewzurCg9UQXKrMxafYBDQowg9dX6PRicT9HfWgzY8aS9J3JK9Eg0hysBrUI+OyjXaML7EvJLmRqTwHy2oMG+YqCRi4P8mDR4Ha7kU/oGUBl4BNFzA+lSQLodBTYsIkyzllvcYIODTu1UToR577oNZlAzbu2M97rC04DbzNBWkFPAhV6IhnG9YOvu/+K68f7Q/LleDqt79DtvX146tH6aJXHPw==);lineShape=1;strokeColor=#FF9933;" vertex="1" parent="1">
          <mxGeometry x="972.8875245304812" y="710.3227448890664" width="19.043458450114965" height="22.047999306394463" as="geometry" />
        </mxCell>
        <mxCell id="Mpgq73nM_WfR40BBSJ1R-34" value="" style="shape=stencil(lVfLbhsxDPwaXwlJlETpnKb/ESBOYzSNAyfp4+/LrSvV5K4n6G29yzEfGlLDHd+8Pt697HcpvL6djl/3Pw73b487/rRL6fD8uD8d3vRpx7c7vnk4nvZfTsf35/vz75e7xXJ5+nb8vvzDzzOuUEsLKIVff19kauXPm89n+6fD84V9YpJmAYkYAHKiHA0gC7VwHVAjhWoBgXK+DhChYD1wpAhCajI+D0CKlDoAdArZACJTSSCkQskCGpV43b7o524dBCogZ26UbJFipSrXAbFTEZtzHSe5CVB764D1DQMHgYQ9MRpwkBIFy6SqZAQ5Zz0k60Eq5GpV6tlzbpk6IobmYLtBT74DrvZCbKnXcdJ9RjwBTBmUtTcKDpApIQ+NxFJpCRIkrYDuABWSWwHVVqkLVRSSkNhuWIJEZa2UnYdOGbBba9KiB3TQcFr1ICsAyiESdw9ADbcwp3hAACG1Rq37KgUQkgLY9oPWrVcMcGUtcAYsIdkhoIWuqIFm1S/oLegctKzZAwIYAsvnVccJYmsmKSsA4lIlFh9SQjnIIPMFoCMP2kDBlxWSb6tFI54avh9kTKqrY2ZFPsaDrLsc+rjzro7K6gFIB2gRqz24GAIFhIjUeeUCs6/nFQDd67KaxnoQoOWKUHGAQA1wg7XB7EG0NPTQ9r3LfgrUPkbVJkDFlBNwDLXJrPkUAnWIle2A9Na1B63qKgIHzP6anlplu6Z13AXTAWVAC9F2s83wAY0yRcuKDOO5oOVkasZDrPjmUR2eQEiqWxzv9BAqqGmtY+zOHCpUMvq52JBKgSJa5aPT9XUyazuHIWinPcORpK2WvH1GGtonoPYJLSYr+ZnGbbed8BCnF/Zo4EWv9HSxQWuMNon4euK+dP9fVCPBvnfyQpeODOozV6JpLzD+5Hck7VO0MLC/cZRw6F7O/louuGf+d7P92F4f/q3RD4enp/MWfvndr9366ryy8+1v);lineShape=1;strokeColor=#FF9933;" vertex="1" parent="1">
          <mxGeometry x="996.0289768450016" y="712.6775104947651" width="13.518077860653648" height="19.8771635644746" as="geometry" />
        </mxCell>
        <mxCell id="Mpgq73nM_WfR40BBSJ1R-35" value="" style="shape=stencil(rVbZbttADPwavQ7I5Z7PafofAeLURl07cJwef1+qqlwtFTEI0LeVxFnxmJndQe5e9g/PuyHQy/Vy/rr7cXi87gf5NIRwOO13l8NVV4PcD3L3dL7svlzOr6fH6fn5YYwcV9/O38cdfk641lDziAr0a3qTEenPi89T/PFwWsYzUuriuWB83AJUQeEOIITStgFF9ysdIDZkJ6UiSNIBCqFWB8AIsQO0BJZtQG6Q2gMyslNDjmDqARXkAFJCMyk1cNkGxISSLKA6NUicm3gbHBHI6WsQ5GJ/kdM2gCOo2qq9nLLlXivIDpfCquYMdhIKYJNPRHKammYm3+IF5BWsYjBTY5ToJESIrQf4YhAGBwsIDiAGiHwEkMKKeaoehxaZ55kui3a6mm/UX7bV1yeZOSt52QHQ7FlLYjh/yBmhN6WRec6kU0Uzc1BqOwD1LDEptVlOb0+6QoyxvqfPsipCLcCRjzo1ZQvw9KNFJ1v03x3ermEm/9ImnXhGMwaTZt/8L/FK5J54xVfbrd+Lk0cc/yJ7UoXmkqIi9Mrh5PsdWcOLqA6HdADcF6xHo9N/ZVDp49U9PI5GhN5QGeLsr2Zk4snVcWJrXgR27DSvBuwrZvSJ1f6eEa3Ofc3fia8rRTKi00/1wWj7n7zLV0HtBaaK8wRPK0YnkNPQD98G343Xxb+r59PheJxursvv9qqqr6Zrrtz/Bg==);lineShape=1;strokeColor=#FF9933;" vertex="1" parent="1">
          <mxGeometry x="1015.6858498751435" y="716.7091695646802" width="2.179136329384978" height="15.432848839233262" as="geometry" />
        </mxCell>
        <mxCell id="Mpgq73nM_WfR40BBSJ1R-36" value="" style="shape=stencil(7VjLctswDPwaXTF8Ezyn6X9kJk7tqRtnHPf19wWroSxC0mp66yE3x1mYeO2C4OAf3o9Pb4fBmffb9fL18PP0fDsO/tPg3On1eLiebvJp8I+Df3i5XA9frpfvr8/j329PFVk/fbv8qL/wa7SLZH01cub3+EUgZ/9+8XmEn0+vM3iiUDq4jZTLNp6p5A7vDYW4jbeeTG8QMmUPDJiS6wxSoAIiqBGnziBnKmHbwDsdMwdicEKw5FgbJGAQHfk+6Jyak+tVEAdU0IYsiEF+L5k+rYY8SCsnMrYzcJZi3jYojoxKKzHCS5X6xrOwziU2f+944yCee7w0HgO8dLZVeIv8ye34O94YiE9B4wFxCpNb+I9+nylHhS8IX8hmlc+I8lMo9HhpWuR/odT77xsrNvG9/yJE2P/Y10t4jfEuKHxBumKmek4JYgqAY/WEviO8xIRLzD1lkviEc6pqIF3rEcmKFhZpw4izZPqqiZMR0Yy1ONYzMW/YagNGaRWi9Y0xK80Wld3CJzSkRCvUDKm1xGJkrU4TZIMIttGF8CjqQLlv1xoVmCFVT1UMO4RYCKr8BJohYqBP8BRQbyQteWIANTtrDZapAgnBzePZCR63a87aoGBZUqSuicYMClHXYY/Uqg4ZT56FctdZgUdDWvBhZ/YoylUCoeaTZjbaAAadKIaFAe5WNc7vid4ycElnKaMThKKs6wCDDu3CMqNoxCLwzwZKjWVA7Fyq1M3T76jxdFeeDTlI0Y9r28e17T++ttX+6Wlv8d7CEkBvICck4BEb3UFh2sbWl7W8WNZik8v1dTDoicCuidnWwqlnjm20WF9pTbt8TAam8W59aV6csOOSDXoipGmobDwUBFVnA+87Qa+bsqZ75BA5xRtRAtDYRktvhDq0WBYCRRCtiFTfEr7JzAbc9wPcwQcIQ5kVHGnW4rlCGIM2I2J1H4dvFU4LkG0vC+ut2VydwUHeJW/ad7QQTY9bdzgjYmnxdzAzMhtVT8Lhu/b0BnRk96VOPtxf+V5O5/P4SDj/v34VlK/GF0X/+Ac=);lineShape=1;strokeColor=#FF9933;" vertex="1" parent="1">
          <mxGeometry x="1017.8285422764448" y="713.4717962327984" width="29.085072295979685" height="19.585504047342607" as="geometry" />
        </mxCell>
        <mxCell id="Mpgq73nM_WfR40BBSJ1R-37" value="" style="shape=stencil(lVfLciIxDPyauapsyS+ds9n/SFXIQi0bUoTs4+9XU5QBa6BJboNRW5bUUtuTPLyvn95WE4f3w373c/Vn83xYT/JtYt68rlf7zcG+Jnmc5OFlt1/92O8+Xp+Pv9+eZsv569fu97zD3yMuFcphRnH4d1yR0Fe+HwHbzesFQDLFOgKEGgBwoRZHQCXNABAo8QBIQtJuA2KhKAMgWwwVABKFMYZigAQAmaQMgMoUUNCReExrY6oK0hpI2whQUrkNsJzkPAA0UgIx5EbBeSiwcFUojB5q6itXAS35LGXpabgOUGrjkVipIg/qjyRUQFbNnp0DyiCpGnpVu73lFOxvKY9jxIEKIJ4yFXb2EcSriVicPaKdZmp+f2ZgX5f7I0poI2GXnwI60+w1u/yj+qp6jgpphPuX0T5Dhlq8baxvoYD4UDpdzva1wPw7/lRcXxts1dujfEZfX2thzOccnT06j/VLdh18r4GDjqO6F/CWfUyOD6i+Zl/H858ScCve6vkM+cMUo7Nn1O/i+Wb9iPY33QjOPiL70kXibI+EzPi/mFeC+Nn8/gyVVRf1NdVB+f+ifQyLgTsL4Z2JOAJyJgWy12yCO+nWrv5XAYW77p6E9TSFrysxEzuSBjymLSuuDbTAS5f2qXMh3YKuUL3LTzGbloMkLaqQFfKUfRvYNRLOrc6CU5Xx+aOVaAzYthBQNGONEzKbRBl0copeCWYpw/ctSR6AYkjJ8+geoFBqiyOB7kmmZq6bGY73tJDXO/PXAOo82GUfeJgv3sXXQUEMBqjuhlB67T/rwTQTVDovyM2NGHiwoKMDaO/wW3XQ6AGKPHz10fUJgH2c33gvm+32+ES8/N+/CW3p+J6Ux/8=);lineShape=1;strokeColor=#FF9933;" vertex="1" parent="1">
          <mxGeometry x="1057.713325763354" y="716.7535043528917" width="13.882711396333292" height="19.321863234638986" as="geometry" />
        </mxCell>
        <mxCell id="Mpgq73nM_WfR40BBSJ1R-38" value="" style="shape=stencil(lVbLctswDPwaXXdIgM9zmvyHZ+LUmrp2xnHa5O8DRUPVYCRMc6PlXeK1ADjw3cth97wfyL1cL+df+7/j4/Uw8I+BaDwd9pfxKqeB7we+ezpf9j8v59fT4/z7eTchp9Pv85/phreZVwOqn1jk3ucvVOH588vDTDiOpxtC8gisCMmhlG2C3Be1BbEZySBEcNCEjOIMggMVTahIaZvgA0roCdWwINd1IRSEuo2PLYULPiIZ93uUrPHeTJGD1/iSkLKFJ+1/kfsNvEfVCc0JOVjxsr4/E7KZz9JpqLYMrPsT4bRDqSAaDknEneiEUKIpuhh1CA7ZlnXSNcgB3m8TmBC06LLEYCSJudVoqRqbqhMLVcdQxILRB+yQOp0yvBV0QkmakOy0ElxnoTYtrlc6tc5tBO8cnNU7HlR7E97QRvoyj0TchkvUhs+Cp9YeG80Wv1SBDX+W8G7KTNb06ptZdESGPwGuUzajGhNe8OE7eI6ougBc4IwApBWZFCGCjO7PHllHQE236/jY412b96v4IuPUdXhLcUX2F3d4b8Qr9c86Qb7Ny/XpKOHpCjDYKLAsl26dJVNAsrxI578iG/mftqmO17PZMTctuzBymxxbJlgTph1k+ZT74Sgish4J337o/AdBDv/eVU/j8Tg/y27/799h8ml+w/H9Bw==);lineShape=1;strokeColor=#FF9933;" vertex="1" parent="1">
          <mxGeometry x="1060.7661491744689" y="709.2830169783774" width="5.058589357614964" height="5.392471810278518" as="geometry" />
        </mxCell>
        <mxCell id="Mpgq73nM_WfR40BBSJ1R-39" value="" style="shape=stencil(rVfLbttADPwaXYnd5T7PafofAeLUQl07cNw2+ftSFdYyaWmCAr3J8nBFcoaPHfjhbf/0uhuCe7ucT993v8fny37gL0MI43G/O48XeRr4ceCHl9N59+18+nl8nn+/Pk3I6enH6dd0wvts5xPVOlkF9zG/qdT83xdfZ/xhPN7imXJW+JApN2DgyWmDmCjztkGlwgqfI/SoEAcdgKcIHCpUksI3T8GBADJ5HUAtPaRVA5bz9BdKoAi+kDyVqFPUqEUQQqDiNQmJYtk2aExJG3hi4FGLFLVHrh+wjk+UssG7CvCZyh0eaKKVLoEFz+j8SrWZeB3QRGuUnU4o9l/4KQrPFIAkJryWRIQaFXzSeKmZhOPV+ZGiDDCfVcdbKCB/5Lho8BnpJ1n9FErIn0jMBu9AAYieo2kSFJB+AlU2+fSIr0BJ64c7gVt4U8Ghd7Et/4PWv8d8RfKaL9c/uJV/Xwze43rku3pE/Aqdtj8E5H+1+XRdsFv6j87kp6Dzm613IRzw5d01vqUgPyn4oqdMooDxTjuU+5j6L/hSKWrC2EEFJWFMKyLhkcGld+RrSV5JXDUQSqMZrIkcGkrkdUpvWFk1cLZpTW0AkHDHcXV92VlXhZ3bsnk4oFImNmM7wgzdDUl5g6r42pOXpogXoWR7YgXprz22RdENCKj2Le+mg6IKtgNMUoOWLNfnw4JHx8tWac7nPpHX8XcNPcKFQNZcw1WE1eLlb9sfkPZl7fYWX8FAEny2Ax410Gmt1+UuEx9I7Z+vAZ/i5WG5c7yMh8N8Zbn9395R5NV8v+HHPw==);lineShape=1;strokeColor=#FF9933;" vertex="1" parent="1">
          <mxGeometry x="1083.1964846696446" y="710.7425637853564" width="19.205548361606386" height="18.701246772558846" as="geometry" />
        </mxCell>
        <mxCell id="Mpgq73nM_WfR40BBSJ1R-40" value="" style="shape=stencil(7VhNcxoxDP01XDW2ZVv2OU3/R2ZCClMaMoT0499XW+plLbOv7amX3GDRW1nSe5Lwhu9edw8v201wr+fT8fP22/7xvNvwh00I++fd9rQ/66cN32/47ul42n46Hd+eHy/fXx4my+nTl+PX6Q3fLzimFCZQcD9+P8hU+NeTjxf7w/55Ye8z5WwBwa8D2JM3HmJ7xU1AFIrGgydO64AcKfQeQiJx6wApFEsH8IWCrANKIUk9wFEFHiq3nxsgkQMhqH2S3gH5Cuwj+f5AjnKB9kWMPaPzp/a6q70DCaqZUrT26P1CXI29R/alpWNxfnSeQsWeX1B+KsVo8s+A1GpfgrGvEajGzfmYOUo5QAe1D4CJsb1haMQFqMRs7DMK2FnCCQloEyIU+vf7CCuQfRPInCDtA8BDzFR7SkftA0BjcQhBfSYQc2QKfc1EaQ46V/IkfefSxuGAh5wo9LRT4SWgewXUPq2qPA+IlzNxtoCCmqmG2AetWs2gDpOHXgoqvgiopzGUvg5KRoeD9mwBiKzTQIgWUFEMWukyANCRAvHgoaAjeTtnJwUiDzpgvE0rFJCzI0QBDlHD2Z6tlUYCUoBpenUmy1rQbNKqtQcC0rR6sQDIJW7MWQA8GAxKDZcHAEprtG1mOhLKku4ewQLQbFABhWTTmlHQmaIJWprKVwEDlzxuAo4toKC0JjvPp4mKjhQpDU0A9iVuObmuYHjHUDLlsQtguopYQEJn8k2RfwnQmWW54dohby/PwxgVPBV5aH2qWrSeR42h54Y+QR5Stp1MVxO0zws3vSyW5wAARewYDXD/n5bn3v59eX5fnjv7/7w81zbErsszmmo1DAmKcCIUT6WvgGYIrbba4HNPCXZwqsVqBy3PU+h2IwoWMO3foAheWp+aAQFWQVVs7HUZAA7YqkDfXwGtQxP5wl6AbOY/Ewt7VGVn12BtvAWcx9lNXu0DkM3cdBYFSKCxDyJjlQWo8PB3Su3RHYez+eECtxZvz6/DEOdfqrVHbXruIQtGIz78603Zn+31w/Va7ml/OFxu9Za/22s8fXS5AuT7nw==);lineShape=1;strokeColor=#FF9933;" vertex="1" parent="1">
          <mxGeometry x="1109.3008711414045" y="708.6405824737983" width="22.47840701137504" height="27.660572834987953" as="geometry" />
        </mxCell>
        <mxCell id="Mpgq73nM_WfR40BBSJ1R-41" value="" style="shape=stencil(nVnZcls3DP0avXJAcAH5nOU/MhOn1tS1M46Ttn9fsBreK4C6R0netPCQINYD8JTefXv89PXhxPTt7fXlz4e/z5/fHk/p/Yn5/Pz48Hp+00+n9OGU3n15eX344/Xl+/Pny/evn8bK8emvlx9jh38uuFhCSgPF9O/lF6aQyv+/fLwAns7PFsAOkEJjCCCyAAk9AUAO1QISh94hgLoFtNAaAKRQsgHkHFoGgE2ACSgxRHRpDlksQAIJBFAzgMqBkUgxiBWp1tCRSDHUagCiliZ8QrGAhE9gbwepU9FHdsjW0qKugZ2vOEAPUgGgB7Z3aCokuAOrt0YLyPAE9U1hC5BQgfPlGJq9Q6fA8RigrsZWrR27RqVA1r27OjwIoCpeSz3PtHATIBxa9IAG7qCO0NwJBdpB7dq6B6CIU7vmFQAM11SA6gHo0mrXlj1AAEDt6kK0V2hpNVNNHgBPqN5bu4SITpAg5AEM8lJvN0RqGFBsIlM1ZCRSm/XmKkQzPoGsSBJhfRiXtiGqERKRWsWnmdywSAtAKxC8tOYIV7JUJBDT49JWS5xgblVAtnaILUSsVhfTmp6hWrt3vqgOjy0tFrAZ5khJzRbRConDCEd75TID8Pb6OEvyZubQgfzql92vhzkshmxtlmDBVYrAVj96IKokPBPcz+3PGmnNyV9QPZe53a7/Cvbvfvs+ffa2+KHYMFbCkRHNC91KM+gD2J+W/dW8IGLIk5GduR6sZ1n2B+6jAV78ekQUyNcnXZ+g/D4c0x156Bf16dKursf6iU4eDhW4G3nv1/WoHtPUxtV6lODIU/LIkCCQb0OGPPC+sshfoDwuW40uA9q3sdd/gv6zrm/QvrL4M8P9XQkb/gzlL8v+DcQ7+ex5Nx5T9Pt3aN+4yC/QXrSsz3B/Yr+e8PolHiuO38W+Ecfv4m8C7RWXeEGchnybousR2/3V9XFS4Wu6AetLtvpp8Lrdu49yddRZyvx7L74CooUXmrv14z9Z3NW/QbSs5IFgtAxyIm49o+4nefckOPbp24Bkv2/B5K3b9eoNiGy0mZx2/SP5la0Wq3/c7UVa4rHB9K8HdFeP9MaIDvdQF0IAW6vuXU4pPRrIDErvmgacgkbzZo2gbUnCAFeER+ODzZbsHbS1uteAWjOUDmd1CuhubBVnD3ukVhf5bRtkHRrOaklbXMQkFOAa0DFqwL7kat/ezh22Vm420SddPmxAXTUgnDBGgDZ/BDTENnS6AqCC2ckPHHdbHk5kaFETcKYx88kegEx9Y6okMOTG3KotAJSH6zJVEphYhZepkkDeNaZ7yQNQaq1L5ut1zjcOJ5TLZIzBHfJSy9VZENdMfCPk0IhfE52zQ2t4Yt89PVJnQfRrPITYTKYlElX00S4teQYSnugZdsOMJy4DRxFMYmh6zgbIkxUfnmDtUDucUCrAVcV6h1dFr9YaofMNLbnCXuc4+zaAfSNe6B6gurlPwi9YyVPnJHCSszP9DaBCoksnX+RYQkQn5BnyV/NDyH9ySI7+44oyuiHyAGi4rX26AqAGRgHu2S422NGOhjR5AKICowNcToAzKU0zCyVDQ5TRky5jWailsrRtbTr8ESAuAPgauiSyYQd06bJ02hu5PgQkD0Cjjt95lb4H0A/7I/iX89PT5Q39+n//aK4/XR7c04f/AA==);lineShape=1;strokeColor=#36FFA1;" vertex="1" parent="1">
          <mxGeometry x="572.250367707446" y="887.3553777046347" width="166.63701984887498" height="48.19386097952726" as="geometry" />
        </mxCell>
        <mxCell id="Mpgq73nM_WfR40BBSJ1R-42" value="" style="shape=stencil(rVbLbuMwDPwaXwlK1PPcx38UaLoxNpsUadrd/n1lGHIiyp5igd5seSiTQ3LIQe7e9k+vu8Hy2+V8+r37Oz5f9oPcD9aOx/3uPF7K0yAPg9y9nM67X+fT+/F5fn99mpDT05/Tx3TDv9kuZ5I8WVn+nE8i+fngccYfxuMt3pBwg7dMRrYNYqBsGgOJ0MCXz6kxKCcJuCSBWIWQaHrdMjCOXPuHXP4QgIGlGFqDRDkBAyYvrUGmCFxKxC3eMBMzYIk8dz8AHgnZziEGpBpyTkfMZhvPJLbFBwogy0t0C96TAQRxF69QQDmmGFu8rYW7wU9QJWHIAn6CTlhmiuD+RD5pPOozY4i9NsgRGIhumxJBAh6VLtBFbSkjl3xlfDEojQRyPBmoJHjKqM+c1orSmA5UXQnaqbJIFDykVddprq26kbeUNB6FEEi6PssgAqHsNF5QmmsR3ASMGGIKHaMG4lnx47/pY6v8d/D+0lVdX8YfxFurhS6WxgAJc7byt4wbC7U9lD5sa05sFaf1CSiVwUXcfb1ivea6GKQOrHW8dDOZBHCUXBWGxaFatev4IuWtUmDtSkkrS1kR3Db+qmxXPJp9uZM6rgfreE/WK3xA+EgcFD8OlFBpQW8U/w708CQ5aiWqBG9sE920dFCErhpV8QEOv/9eAr/Fl4frxvkyHg7zwnr7XW+o5WjebuXhCw==);lineShape=1;strokeColor=#36FFA1;" vertex="1" parent="1">
          <mxGeometry x="622.9757218904604" y="899.8989148458943" width="9.068449825954303" height="15.147867874068796" as="geometry" />
        </mxCell>
        <mxCell id="Mpgq73nM_WfR40BBSJ1R-43" value="" style="shape=stencil(lVfLctswDPwaXTEAwec5Tf8jM3FqTV074zh9/H2hatSakLRtbwqDJYjlcgEP+vB2fHo9DIHfbtfL58O38fl2HPTDEMJ4Ph6u482+Bn0c9OHlcj18ul7ez8/z369PU+T09eXyddrh+4yrVGQCBf4xLzCl8Gvh4xx+Gs934dJISxcfKep+vAYfL0Ip7QNiIa4dIAQSkCEHCq0DaFpq2gSUTCl3gCRU2j6gFso9IFdiAGiJpAdUowGw2hpV7QAtUkUZGrW+6JYpMARk7gGFYgWAStllqMsW24BC2hdtOWOELJXoAQ1cnHHCsgIUADDWkwfAGpia+qIrUGu1A6xorSCDATxLJkfA0gTo34PxFsB7mI7kitZFLNtFC3HoAWHZYo/WmD0gIHlHEnfTQhWJL1HNHgBvumwcKSKA+V7xLCmgdVKOozXCDMJM7LRhis8wRXFPzswQFdGI3ZkqBXRzJs7Vk4O2kUnZA5C+jZTU13DHw56aavUpCqpaNoxGkNEwycrKBMjPnlB0R8pQftsAlCH5lmIrAdRQqi+6CLyIXLzhp7y8kU1AUm/HURbr2W7tzevbhokGjmSjQu5ZkgZ7kCjFPoOtMOgQStK/hwpnDfMUx+li/zvhrv0UEnAYJu35zFClK7dIyyD0b+EKBce+E5rFozHPt4TfVO0R6YY8WKr68QjPnGYp7MLRQJh8D8f+sxpb8O7/OS//Ndw+/ozmL+PpNE/29//3o7wtzT8D9PEn);lineShape=1;strokeColor=#36FFA1;" vertex="1" parent="1">
          <mxGeometry x="629.343029758629" y="897.8108473684565" width="13.750392919084192" height="18.089581477398305" as="geometry" />
        </mxCell>
        <mxCell id="Mpgq73nM_WfR40BBSJ1R-44" value="" style="shape=stencil(rVbLbttADPwaXYldcp/nNP0PA3FqoY4dOE6T/H2oCuuIa3mKAL3JMkfLITnDHeTuZbd53g7sXs6n4+/t2/hw3g3yY2AeD7vtaTzr0yD3g9w9Hk/bX6fj6+Fh/v28mSKnp6fjn+kL7zPOM3GYUOw+5jeOnPv74uccvx8Pi3jJFLOJz+T4dnxiysnEe6EADiiVUjUAzYjzbUAV8tEC9A1IqSbyxQIqlQAAhYLlIJUyAtSedPSUEYdKVQwgBUoFplTtCTmT95B0tVUquSW5DgitiA1QI0VUVkfZnqCsIuCgCbC7AgAORVqbFikJAnhy0pMOchuQK7murIkymNZcyF81jtEJhcRy0NEQnFKygtPhkwhJ105AWlYEiORsSsxtWNYBpbVpKVEAqNz3gVUPaJZi70pqM4zGO1OxsySp2cItxQU7rSFTAid4dzHGS6sdCRZ1sGXKgjWqiuzGNVCosEy+E4SQoLrqbNiU1EiQz2irxXrlog7/CZF88/eFrD3aQbE3P10aDFh411p7AeAVkanaVquoGGQU20pb2EYFCUmTyyXeta23TqBfutNaBfk7CjY+CvTuq9EOQgnGd84tGg/qoz7crejQPGc1nina7/sIN0Po+erGBuVPVGw60mZ2XTVNhF9XpIjIfvNK9e94ffi6vz2O+/18/Vv+39/39NV8V5T7Tw==);lineShape=1;strokeColor=#36FFA1;" vertex="1" parent="1">
          <mxGeometry x="623.9396130668513" y="908.2040309455206" width="8.3599619756629" height="2.295276545823981" as="geometry" />
        </mxCell>
        <mxCell id="Mpgq73nM_WfR40BBSJ1R-45" value="" style="shape=stencil(lVbLctswDPwaXTEkwRfOafofmYlTa+raGcdpm78PVFWtCCrb6kbTWAFYLAAOfPdyfHg+DMG93K6Xr4cf4+PtOPCnIYTxfDxcx5ueBr4f+O7pcj18uV5ez4/z7+eHyXI6fbt8n77wc8aJI6kTKri3+SaTc78uPs/2p/G8sq+VYmjsA5MAgDpwLSAyxQwA+r3URsTEBQAypdIAqiMGHrxzS44LQiJFBi4KSW4BmQLK2lNpadVP/L7Z5jWQb2kSWYjbBGQhEQso8jEgZcotryseNhFaqOStiwxoYk8SW0ClAgCqHZ8sTQxo8pWcKUSCHnyhYHLgJcjtkBzlVk0SKIBChEreiMnBkFg5aUtdlVYQUvIUnQW4BLQRqXIHACGVQkksIAEx6RjgbJPOqKtz13J/FL8NUDV3hauAJQV4A0iUkYdIweSgYkFJp04aFSZd1ENbB8G0Zk8+WoAAQCzdnBGqIGlOlDoPDnRc0P5ylqUKxrEXYgPIy81HLdpP4wQqvR9QuwZylNCGyEvLr3ZQAYC6ULJacgV0aFjc/+cW7RYW3tKe2OxcmG6yM1LHMhCd13nUashDkaoi7OaB0yiIHS66zwGZUdnxxh6xk/TNU3bYa1fmsCOeovTzjnyL2J7EfOocKm38uF7Temn5xHLY+yb8t70e/j5An8bTaX6/rv+3D1a9mh+7fP8O);lineShape=1;strokeColor=#36FFA1;" vertex="1" parent="1">
          <mxGeometry x="646.6568169720651" y="901.978941234795" width="1.911484525969507" height="14.37594231233561" as="geometry" />
        </mxCell>
        <mxCell id="Mpgq73nM_WfR40BBSJ1R-46" value="" style="shape=stencil(7VjLbttADPwaX4ld7pPnNP2PAHEao2kcOOnr70vVWMWkshP0WCA3WeaIImf40O7S1fP9zdN+x+H55XT8uv95uH2536VPO+bD4/3+dHjRq1263qWru+Np/+V0/P54e/79dLNYLlffjj+WJ/w64xK1voA4/D7fYGr5743PZ/OHw+OFeWRK0dgHCmFuz4Wyt49pbp8j9ersS53bFyGxz0+UZG7fCjUx9o1im9v3StKMvVAD7yOJxD4/BpIOAJWydRAzjFjaCHAFFGIE6MTJAio1hgApFtCpA1GIULEkcKQCVKEAxzJr0Eh2YZXZimiDyZkLL4xIAaVJqFoPKVPEgGBLJ9Xhc5ZXx1wSiiivbShhAHKA1aliqpY5raeKiNByiBsAkGvXcmFbPxm+UtMQbZa66hFVaBziXCtO9Qjk2gKx9XChljcRVeVso1YuM3BRG2XrQqlhEHWtvu1pY6gg6qpE2CLtmrgCAcXKteehx6mHbJlTAaOgNQYHyLCqNUuuDSg1goJWHqxcX+/MqE7sAQlpI45uvQKUaeQhjZysMfBQ/AzgBkSrFJCHvCEuUAcjcQG4CiqjQc8A0c0s9YBKTmemZVr7AgyaR2e8qFEGrU+JczwsIwCJT0aTuARg8Unwr4Q2DZW3qzgNOoAYtIDcRBHcjZcStVrqBc4sBVTrQaVRwXaiMTgeWoEjqG7bN+MmsJlZygxasN4EZECcvnG2xNUwFpa3RxD7fSYL3pgiZbdtdNiXPnayj53sP9rJdLWIwQf9zkdNsepLDJur1qjPktYoAOhnWbUVpNJIYGZpiGIbE+NeqX+7qage0P6jX67iAAL7TKbskhSJQQjJr0tqH4H0mPImp2jjUxHY99EuhpbWsMmoLiYg3uA51ojQEhB8qUWBHWnTLeK6JE/s3WyLCW71gYqtM4FrVRxl/noQAOXjW1ce+8aE3O6PJRBX/3gK8665Xrwe+NwdHh7O50WX//sDIr11PlxK138A);lineShape=1;strokeColor=#36FFA1;" vertex="1" parent="1">
          <mxGeometry x="643.4596204872801" y="900.182363362826" width="22.148004116506616" height="6.3596646809889394" as="geometry" />
        </mxCell>
        <mxCell id="Mpgq73nM_WfR40BBSJ1R-47" value="" style="shape=stencil(7VjLctswDPwaXTEEwQd4TtP/yEycxtM0zjju6+8L1UPFhKzt5NJTbrKFFUlgdwlykpvXx7uX3RTD6+l4+Lr7ub8/PU7yaYpx//y4O+5P9jTJ7SQ3D4fj7svx8P35/vz75W6OnJ++HX7MX/h1xglT1BkVw+/zP5k0//3j8zn+af98ER+VUhrio1BRAMgkPABSpIpGiMQjoESKbRvASjouoTbSCACFahsAjamhETKVOAIy1QoBPE6pFWoCAIlSGAGVGkgrC4mbkqWhAECk4EZolBkAAuXoAS1sA5RaHuI5hD7mVUClxH4ABTPK1IqPl7Qdn6iyT1EB35dVfKUCqiwURilYkTOSAtUViwTQzuIdiVKn1dV4y3YddVApAkoEz4isVEE+uZe/x4sxCOSndp0vVhGpIcYZ5ceEzhwEBJLoKWclBCrL3I3kLT4CoyiNwlgBJQbWpdLXtyxgsZqrACtoGykRC5Z9WBVNKmVQNON8lNF/KwWQJA3dFhZaVGgUxjLnvwZQxItMMa1GQIDYrW0BlO7I1wG8orY5MsiSVVpHJmXpG+MWwLnjTC6Q1mqFG9eQGkWUVvb2aIVLaNHSXy+A0sfcqoMrXLLKoDoo5ewBjLjE/fUFoIApmYKk+DUgBWn2lU4Ks2QAHT0gBxKwaAO0cQ059h5oC+AamLzs7luL9lwq3cq30ipuSub0wJiscLV6gCK2FuLgAWhvMPKVlWvAzZ89l0yiBVTaBMTONQT2VLNEXZa42+0WwPWFJlHUU9mUvIBw12ZGVtwIhRKWaFgJKGFvfR/AyOca+mQaBGswgGtLxPiLCpe7vpZNDrtGSRRGPcydAWoMrQ6ucbApgbSKeolae1wBwHoZtwbb2Rn1Mtq/d7Fo1KzajNXZfaAIBGQzzm5TVNgJ2AhpBJjKIeDqsQedMT6OPdPHsed/H3uSN+GGTw3LRrbIQGFPMjNiNO3CcLedSep6EoZbm+mmjqZtSUAlMD8szuWxMHV1augs33Qvd8sDeyRu3rwYdjz2mkdOByr4TsjtmwFSwtLhGiQsyVlj1X8f+JZxKPvvo/1mNgmfH9RoS/C7eIRnBYvXUWPSE3A9fiHwG3/QAey9t4T/jreHtyvJh/3T0/lG8/K9v8K0v87Xn3L7Bw==);lineShape=1;strokeColor=#36FFA1;" vertex="1" parent="1">
          <mxGeometry x="671.2431001109439" y="898.2816464417069" width="12.77983922961228" height="16.514424170749837" as="geometry" />
        </mxCell>
        <mxCell id="Mpgq73nM_WfR40BBSJ1R-48" value="" style="shape=stencil(lZjbchoxDIafZm81sny+TtP3yExIYUohQ+jp7estY8AS+xPuNuy3jvTrYNmTf/pYv7yvJuGP42H/ffV783pcT/7LJLLZrVeHzbE9Tf558k9v+8Pq22H/c/d6+vv9ZSbnpx/7X/MKf07f1Uo+zF8J/z394qn4/z98PfHbze6aT+ST5h3gub++8Cks88VRKIqXvMynQnnkhVJa5mMg7xTPsswHpioD7ygCfTxTzor3QB9p9rDmgb/tNUfFp7rMu9rDefHXAf0b70f7A9THFUqj/oky4jMFpWcTFBkUyasPKv5AKNYxg1pMQErUHtCzx6H7dDvlKI0KxdpjeDuFKIwVlnGKCpVR0eIpRuAw1XH96khAirYKGytgrmkkKLlRz9YzAvDX9QS74hPk2fAZ6N86irGngpRr0XeGByXDFB/kvTc80J/JZc2jFsrEyegJ4tV41nyA9rDxV6CebOxHLYJJlD2FCsh/1jtM4zP0NwbNo5bIfbXr9aH+1RketVwTr9IrdKleotbToRZ6ox49rHdn8gc2UOKi+QzzR/ef2jvYkv4mfyrY8lp8R3scn1N8KYFsg4AJJ2IcgDyb9TO0h836EfOmgAUm9KO8qIaVeokuBUwl0HkIWUigNOrTNjC0wbQJz2yQARRApDDaE3EDKnrkaxu8R/Y7MxOfU+r2B0FvYW1GgVNW0jXW/qdDNZxJRp9TH4uW+DI2lTszRDFjGZyZ5jFxtIfhHmabBFa0DU1SFc/AnnnEMzyaybh3hAsvwP752KB5tMe0Y4kau/ExoB17ota/AvvnY9Wop5CA+Npjm0D97bFQ+gJLfGTNgz1gHmGi4gOyv9pjHsrnuYNXxaOZ/rJDXPiCCphN0/V9jPr8B+4hi/y9CCiPfZ9jP6koPpjbiHnKOAJR+wsvCh69iLjLt4fLrcfbZrs9XZpcv9e3JO2n0w2Lf/4H);lineShape=1;strokeColor=#36FFA1;" vertex="1" parent="1">
          <mxGeometry x="480.73487784997224" y="911.8052710493562" width="111.74132054194041" height="101.49893118746868" as="geometry" />
        </mxCell>
        <mxCell id="Mpgq73nM_WfR40BBSJ1R-49" value="" style="shape=stencil(lVjbUhsxDP2avGosy7bsZ9r+BzOEkiklDNDb31fb1EssZw/wlmyOsrocXXdy9Xx3/bjfxfD88nT8tv91uHm528mnXYyHh7v90+HFPu3k806ubo9P+69Pxx8PN6fvj9cLcvn0/fhz+YffJzmulNsiFcOf05NAQf49+HLC3x8ezvAx9p87nmn5tolXajrgI7W2jRcl5gGfKYdtfGqURv0rVYAvQrmO+kdKaVtACxUnkEmBQFUKo8Xm48jbAk1InUCDb2hKMvrIgpaBU1sjHm2wqCkQ4GAsCKNEolTgK1oeBMT+AlndqIxEkkYBvyE6ZgSqSKCSjipZ8BVw2wTiGAjNlAC5LRAaR/KlTq8tAR6NbkyM3lAoO4HcCX9ZIHefrAK1s+WygGk8CpwF/7IEUx2tXoIPAlEthZrXKQI3qRWNMdSmZQWRK5nCSPDaetpulQ2nUhUqwGhJvi6ZkgX41VKyjhmkEWY1M0ka6Wq1Dbwh9/eveIWlMnqTS4Emmz7i8f8r20V88J3B0o0BVacSU+wJyIXgi1hOJIB2oXuv41MmAZyYAib4/80/oz+jUAT42MvbmmgJFjxrlKO92uvZZYZSyA6egLXivalQeemueIUz4KZ1Wa9MANy3uuz/HTFNqCWvDEp2Cs3BEQ9SZ+0rvIDakyiKgzfgGYOPLKswSaayUylBErTi4AXC1ZXNPopsRVUdvEISiIdjAk+eQQVWfDrVno9b2eTnREZzrh9blSokcIgOnmE2seeMgMpnnvGMZOjI5OEBwsvH4NUXDuTINJclQfM8sfd7Bn5Pffk4CxNOPp9NDJX5EFx8A7cCH4HyNg+4GVveoDC7ETvBYsB9ZjprgGjVYSqj763BJhBa7uPDim9wt+OeQmvDT3A0jX6lMHwD+tvo6wacDJPWJq7iFFI4opkFfghk3KhWB55tFA24NAdfSCpTQ/vsuqGsAtrddnm2rr3Pr7O1QBtseneV05YSRKNlP5jGfbhQJL9i256UgUq25LhMsyeMBdropRZgl15MdO0iYaN16gAZ1vS2jmdn43LBb2jT/ou69bL4uYG29pFyS8D199jeEiij0ZaDqHcsKrlDhLVCbDS7Ghn7kr51TPE2MCxiRu86XV8qqGJa+iFkFVD4hjLNztYXUP+25TT6lZwymg8mGxQ3HvWdJ/UBfKvuqbvVwE2Np0MK96FhC8/R49Fmqn41WlvXFt7HGG7Khtfm8GhoYfWXJu73iHfibfdEjXzSJ/TEe6e9Ad6xZn8GyJ8lXuzwaBvkqefgI7PhXVPDF6mPHrHfxtuH14v57eH+/nRwP//dX9jt0ek6L5//Ag==);lineShape=1;strokeColor=#36FFA1;" vertex="1" parent="1">
          <mxGeometry x="424.16969015755353" y="1001.0447047496757" width="109.60457205884819" height="77.9498577912311" as="geometry" />
        </mxCell>
        <mxCell id="Mpgq73nM_WfR40BBSJ1R-50" value="" style="shape=stencil(lVfLctswDPwaXTEkQfBxTtP/yEyc2lPXzjhOH39fqBomJmit65ssYwUC2AXAiR/etk+vmym4t/Pp+H3za/d83k78ZQphd9huTruzPk38OPHDy/G0+XY6vh+el9+vT7Pl/PTj+HP+wu8FVzMVnlHB/VneJHLp34uvi/1+d7i0dxRLZx+pxnX74qhm8/0Avp8yJdfZe0de1gHiKNcekCgCD8zkYwfQEKSsA3wh1x9JP4Fi1hCkT1EkDxzogVJnL5ESI/vo+5RGyiBFhbj/fsb2c8B9SguTBHCgQNJ7UJp4B4tmjlQjBRCy0sJUuQrFDGIO5Ir1kD0gtqfYC6EGKqDKNREXG3QCWVJAHQCCjpRJ6uABibOQDz3AkwOVVoCwBSQMyNlmiQG3FVDMkRiKQQEpW0DFQXOv54rlM7c8Qz4hjwFhJB8qXKJUBgDykKzi5iNVABDbJmd6Iw9CYciSQ3WQNgcu6sAoaBkUFzC9ZUirp4wqLQM1fOvla2n1g4BgE0iU75UoDx7QMFFAFQuooFUqvU23/+xUqxL1tg6Q3qNEA1UUtHowXGKc1tJ69QX5ImqVOoHYAirSQ6Y4CIgRNe4G+KFwWnuQVp1AwcRQmwb/e/VxbfW4ioi1zfEPF1oaAGA/kCk2Al9fBZKdKCXD/U3sepjVHgwUZ3erJFDSat8zSUJrCmvn6btYxEN6Xh77AEJtI28tpbX3oGdErXsumllYP6h1nReJSl80IQFF1pVb+hxp1RGzHZXeHrNOORbE2N8Y0KYhebgcqkw8G3u4YlQrZd+6+Jp9NhVrg2jNvpoLQ1sgrlPIDaTmRqpVB+bC0NaB1QCqsUcaUHvpRXxjudACGJG1zrRaYHOBuTXS2Igeb6n33lFv2uvD54X4ZbffL/fpy//tBVpfLZdvfvwL);lineShape=1;strokeColor=#36FFA1;" vertex="1" parent="1">
          <mxGeometry x="546.5891853541157" y="1039.7174956340548" width="37.997638504545506" height="29.036015255895492" as="geometry" />
        </mxCell>
        <mxCell id="Mpgq73nM_WfR40BBSJ1R-51" value="" style="shape=stencil(rVfbbtswDP2avBKiROry3HX/UaDpEixLijS7/f3oGfYs2jndgL05Co8okofU0S49vB2eXve7GN5u18vn/ffj8+2wSx92MR7Ph/31eLOvXXrcpYeXy3X/6Xr5en4ef78+DZbD15fLt2GHHyOOKesAiuHnuCCZpP1e+Tjan47npb1QqD2AqQBArNRSB0hKEQDsAKX3EDPlfB+QhbSPgQsluQ8ojWruAJVyuG/fAjXpT0RBQY5CoBA6wLyw7aBRK30EkSICJMp9UmMhqfcBVai5slmdE8iRUupzlJUq8JALKfdJ5amQ2wALsQ+62Qqos7aJBjPA6hYhwHuwFQYA228FQNTT4sk9lBKk1QDcZ2lBlm1EphS9iwrYpzolZQFQ5EGJg89rAx2qQpU9IBUIKC6vhQo+kmsgAwRUCCVx3MikiBuZOHoAY0BtPUCpITJZiLwCIA91auHlkcAcM35zWgWNqGFEqD6tjOrQptm+LBz2UNyRLCqUpUayYmvAWfJ1sKhQy1XiFaDipk494C961Oe14VLbLBUPyKjUdmeqBzBuuVp9IRSM46FHnYeCY5BVIco0b/8ToHglYDfxO1dK62OoAWqNYvv17DMxgSaZ7cf9JJP5Zt0GzNJioWYYNEQTD2CGg8m0gOtR4wqgUo2Uq3dQQcy5+GvU5EwBDSRtavlZ8gV4pMQkvYfUJpm5rbCyB4jCnhbiPmYNULUmL2bMHpU5+htRmQIYStHLAJ015nbA/nobzg9YZLsFb494HUjcMwAPsDBdTAt7ARNyJYilThPwnn3y9mhUGL/6PpbyTn60eHukDHlSHwv5XEG8//ysetfePv684V6Op9P4BFz+7998tjS+F9PjLw==);lineShape=1;strokeColor=#36FFA1;" vertex="1" parent="1">
          <mxGeometry x="601.4413067673886" y="1040.2394594112002" width="28.16277632896991" height="34.56557815721226" as="geometry" />
        </mxCell>
        <mxCell id="Mpgq73nM_WfR40BBSJ1R-52" value="" style="shape=stencil(lZjbctpADIafxrcaac97nabvkZmQwpRChpAe3r5yPZt4tfXPcGfgYy3p18me/MPb/ul1Nzl+u17O33e/Ds/X/eS/TM4dTvvd5XDVq8k/Tv7h5XzZfbuc30/Py+fXp5mcr36cf84n/F7+VytJmf/l+M/yjSOf/33xdeGPh9OaDzT/1vGlbvMlUI0d78n7bT4zVW95cH70VOz5nLZ5n8mzsT8Cf12gZP0VYL8kqvZ8joD35KrhUwC8IycdH8gXwAuVni/YHqHQ54NoBJDD3PT/cEAlYZBBlHMvWKACPC5Nzw+HUzvhv3wi6QWLhZJs8xq/0PGaggIi5Kj2ASpM0SFe+vNLgfERyn0C1YgVo9gLrCWNKkAFTpaHGdTqdcUnaI/xV/kC7NGCH+yvwB6mlAcedAimMNhfQfyZ3MBnoC8TF8sH6C8P/qJ8G3nNH1CQylfLR8i7YHkH6kvjOfAM45/KwIN61HxwA48aUIveikfxFFvvyvu76qXgDj3UY2kjcOt8o1eF8ZdWrSseTTCxA2OuR5j/dbAH2c+U+/gLawrCG4wNC9/ADQZlmHAyFHDEBekGATBvGrQKDBLifl6Mv+FGA03DgIkwQcMwwAQ0XNfGc+NTbZJvDFSzMekARuenZu1qwAeQP8VuoLpAIH11vJkNzjcLN/jSDxjdgALINxkEy21EbfHDiosaoq58ZkIyjP+8glqe0YKigiXLA73mFdobPgK95hU9G74CvfIwAbSFAX/1EcNsoAJXdC0ntvagDXfep5yND1pwq52oDPWd94VoeZBv8/5lz3fY/lwNHzA/5A/K5899baUv6j88dERpJb15A1ORbYRs8cU8w8AnhlrtCHO3BI72mU2wYN7yHtt/3zP5TV4vPl8AvByOx+X9wfp3+8JAv1peNvjHvw==);lineShape=1;strokeColor=#36FFA1;" vertex="1" parent="1">
          <mxGeometry x="338.5676811456153" y="1032.0593349883839" width="87.11239382106479" height="66.0471091244163" as="geometry" />
        </mxCell>
        <mxCell id="Mpgq73nM_WfR40BBSJ1R-53" value="" style="shape=stencil(lVnLctswDPwaXzEk+D6n7X9kJk7jaRpnnPT194XqoWWupHV6c5yFBAILYEHvwt3b0/3rfqfu7f10/Lb/dXh4f9qFTzvVw8vT/nR4t0+78HkX7h6Pp/3X0/HHy8P579f7CTl9+n78OT3h99nOO4l+slL35/xNlqD/vvhyxj8fXq7xUVId8EWK28arSnMDvkkt2/iQpJUB71UScSiplDgaJAl52yC3xRuK5LBtUIOU8ci+SmvbBk2ljmf2TYonBkXSaKBOEntD60G/GGg/1XranBMHFqVncusVIQwGIUohYWoVmREjTYSduo4GKUlK1ECBq1kKe0PuDlzImiWRMLUkOpKpxv7NukEUN7pUjV4sSpanNNZDoAXRvNTRJTtVZtywTMMbag/0Or8vMbkY8DNU6xlQcjO9Vi2Kw1SbT43ENVlJejx1Im+IKtlhXB2Jq1Z8g2UukSK1LpFGMk2BI2ew1prGRBiZMnlDxkxb58mE3rGH8Aqv7MgSxzxXT/3xEnWsniaZHNhoAaMh94LdwENLKp6yyPBjR8rW+0klOCmj/zYrPImnlzYmOLre+ddnleTx+dNsI/0rSRyfbx5WEh9rdzB3bBKxVoHxrKLEHeNnGPkQem9ax/v+uI7n4TF8dICPpK0YPgfAezbTLF8e8I5JFxVFfxyjvyKfzR/mvyLfLMAsPiYTGsaT+9OAD+Jv4EHoSOL+V8Q3Hs88+q90Vk7xjICPLL9WrQnwbHgbH2pGPPPHd4014wN/PtSLiiPtZ6qXAPFkAsrwHuNPpbhHOeR6QWz6HwF/Kz5Y7zS/vnezq/pi7dbyu6hH0v4NH7BeHK+vvPD/Rj0u4sPyqzgvXC/QD9dvuPF8D/jK47PAs/E45QsEO+eP6+1jXuWU+FMX7STSeBbxME5tgBC8rXljeoOj9Rv6rnA5rqdyQFEgJqX5sm4w0meSJ1SO+RFfeD1qnw4XfKL1FXDzNvnG5KHFEwSxo6t96dPwSk7S/umwP1ftr9xS3MCgaRsjHdEoBxVQC01xXIw8254yqWHbS3Abiz3t60HyuCDaIhNZ1ThU3bb2BiLLbAvxDQ2Y7K51sYxlesViMQHhN+3JbMn1WJrt0iu3tmKQBraMMe3aFtq73tDGEW9MpuWErdEJu13OfQHcumyA8Z1SH7hbBsClGPtE3LwmGg1CpFyyJRtbaqEbnL0BzmBdh60obdGU5ja4dZmWQaR5GqVsOxWcgcuEpBgl6yPsliikLsuuBhVj66QrYZArvemy53kwsJJiXOr3i/OkZUdunfrz4lcZtdH9ym8nsSFVKtubBNxCPbtnxBu30qfER+Fsp2m9xmc4kywNFWamiqgh0zK9r2nIs9wvBLZIkADOCsUoBSTjDe6/b/5v4u3D/DPD4+H5+fwrxfX/8WcJ++r8k0b4/Bc=);lineShape=1;strokeColor=#36FFA1;" vertex="1" parent="1">
          <mxGeometry x="300.78640841250194" y="1091.068872737018" width="81.54905931109529" height="57.48838636153754" as="geometry" />
        </mxCell>
        <mxCell id="Mpgq73nM_WfR40BBSJ1R-54" value="" style="shape=stencil(lVfZctswDPwavWJIggf4nKb/kZk4taeunXGcHn9fqBpaJmSt6zcduyQBLA4O/PSxfXnfDMF9nE/H75tfu9fzduAvQwi7w3Zz2p31aeDngZ/ejqfNt9Px8/A6vb+/jMjx6cfx57jC74lXhXweWcH9mb4kiu7fh68Tfr87XOOZfOjwkYqs4yVQsfjo1/E5UY3mPKms42Oi0K8vFOo6XrdPtcN7pgg2qHb94CkBgwMl3+HZU2VgAIXeXrXIhXW8TzZg2RHndQIzOekIJbUz3iQkJu4JUlrQbxKKJ+l9VCM5cCRJdoeayYGoKUGiJQS0g/5mS8jABiWYuFU1GsRNCTlbQnmMIMRAeTeOJFQxwWi1VoooOdWtbAmCbEjtxJfscY4cqBcSSardoqLIaX1IlgD9Gpt0rggM9C1MkqxfCzoSU1kQfMQ7OKsNlHKjDSbUGVYNJfBC36iMKcHakMljbVgx5VZI1gi5PrSD/l4YDeWqvxdG14RTjhdxuJOjpjBd+uNqjhZLgP0wLwKnakWFKbWc/9980Oq+qAKwbGjD6aVxN6kfZmiLcItICHBsCosC7pqCb7c5b6tlEbiD9n2Tc5lhE/JWfdqpKwj1xSOXScBRRG20rXZxammz0Noo40yg2wlvTxqRam9whB1OR7HSNyxPjFSho15fALAmdJSM2eADwgslZ/DIP4o3rcfDqUTTJKQH7FV8sv7JQKFj3vbnCVBvY9pGg09In26pODi3zZ14xmfsIDPnqYDQ6FwpO4NHM9jct2d8RQ6SVv3nu0JAARBbrHWcwes/dje6i9eH+SL2ttvvp3vc9X97cdNP06WPn/8C);lineShape=1;strokeColor=#36FFA1;" vertex="1" parent="1">
          <mxGeometry x="396.3817598287428" y="1120.1991638725958" width="45.055307347555946" height="33.572096305836475" as="geometry" />
        </mxCell>
        <mxCell id="Mpgq73nM_WfR40BBSJ1R-55" value="" style="shape=stencil(rVjZbhsxDPwavxI6KIp6TtP/CBCnNurageNef19uDW0trnfSAn1br2ckanhqN/nhbff0ut2k8HY5nz5vv++fL7tN/rBJaX/cbc/7iz1t8uMmP7yczttP59PX4/P19+vThJyevpy+TSv8uPICaZtIKfy8vqjU+PeLj1f4YX+8gSdqMsCFcl6HF5I4wDO1tA5XYh7giZKuw2OhkAe8nUaA8WZsdPgQ1vEcSZrHA3uKUi4DPhKXdXw1NeuAZ8rAHjV8GPBKCayvlcp43mgbIP2FwkgwD0QQDlW7P2cHR6ogIERJRpdx6qLd17SSjBqVBGOIlepIkEgNeI2ZeDTJjEQqsXTV55zJxBWcgUkcocEdzABnkhZSIKtm0nGHZn4AsjbtmswE6UvcJzTiMfZahclghJo9AWWDEdqC0CJI/zCn78yYhVvdInoCKndGcBXA3uQGCZk9oaIdFhk0GYk9x67IBFzGjOFlaqQgXk13V7YnHdAO1RdWI0QkU6VYvCMq3iGyJ0QUfpXSWAamU2GTCntCAt1kik7nOendcc0PWTxBseM0LwggI0z1tNih4XCVRc5lvIOqJ6BCcz9JUdea4l88oaJwtQxzNrX3duDqCYLLQBBPaNhzLoP+Ikl9Rsz18P8QNC3ilWH4Se3TyNyFFBJK7h1hJiQKqJPmHjtzY2TYhWwicwXcjBTcq3U8Q2lUQEaUQnV0dQmwbYn00JlHIOyHKn4aSNgka+5xNMnmyojmPvad1CZlVCw19uI7EyJspDa58hhLFU7eNhnHEV8o4cnbGcQUwIltspfk8AkktOnhFCp9vFm5mPjApogSgcJYX2LoLly5VbnpzeQvYP3k70mGr2hS6k3gBo/6SPStcFofXcQoRo9H9TT40dDwGawf/OxpeFRXTO2F/mh+Cf4eOfkLru9bWi/3a3DXn95Z3TVx7QVjBV7cXQGOLf944X8Xbg9/vi287A+H66eJ2//9twh7df2OkR9/AQ==);lineShape=1;strokeColor=#36FFA1;" vertex="1" parent="1">
          <mxGeometry x="449.3019440950204" y="1132.0150298379006" width="45.845424899308746" height="40.988115947677315" as="geometry" />
        </mxCell>
        <mxCell id="Mpgq73nM_WfR40BBSJ1R-56" value="" style="shape=stencil(lZfbcpswEIafhtudlVZC0nWavkdm4tRMXTvjOD28faVSDFrBz/gO409iz4dOnj6OL++HzvLH7Xr5fvg1vN6OnXzprB3Ox8N1uOWnTp47eXq7XA/frpfP8+v4+/2lkOXpx+VnueH3eC5F6m05ZfnP+MaSuH8vvo78aTgveaEoine8zUe3cj/gA1MMijdAHt/cbyj127wkSqL5uM3bRNJrfQ3ghXyseCGbAG+or+93FJE8TKHmA+RNoj7V+jroABMme9wVdhQCOOCJfa1xthlQ2RhytYt9Tz3QIVCoPxCEAogJp00aI7EAm07iTnxKZJGPyQbNe2BSS+w0j+Q3FKzmk0W81PcbZmIgEFPyzQeAA5h8Y6AIQoKnkF/wyMFZ2oZ3QOG7dgveYF45IFKEvGXNe+Aw1gGdeYH3R6N5g5J4RR4DAtroGlR4lMK6Ju7Ib9fsgxOsb+wPE8wp+2T/Ql6ahIFFerLeMj6hfWLDo/hvCtxOfhni2l/7CRyaBEAVgkmi5v/X1A3eNBXLA4NmaRuHWZyQTQJg+R/jc4DW+sYw1dT1KYKk6TAOBHTSBSV3MEEOtrqC5h7JqEd6HUK5q6EUy21bxXTu8wxcbKJO4kCCPpB0F84mQoOK1U3G4CZ5j5iJZxhyco/4mUf6lkHRax4PookVjwbRMug6xVsgTx6kg5bHAnvOLWghDwjpUmLjA/LPM89CHpQCucQmxaMUKBVHFO9BDS0VTdsf9YzCq0GXGCwCixI7H0AJkFY2Bw9SuCisqvrURrZ4rzcN3nGYGtSnjN4KiKTvR4vAw5vhLp8f5jX0bTidxi12+b9eW/OrceWV578=);lineShape=1;strokeColor=#36FFA1;" vertex="1" parent="1">
          <mxGeometry x="245.68255124464167" y="1112.4969606566776" width="55.26004202800275" height="70.9291420605254" as="geometry" />
        </mxCell>
        <mxCell id="Mpgq73nM_WfR40BBSJ1R-57" value="" style="shape=stencil(tVZBctswDHyNrhgSIAnynCb/yEycWhPXzjhO2vw+UDVKTFLatofeZBorCLsLgIPcvOzvn3cDu5fL+fS0+zk+XPaDfBuYx+N+dx4v9jTI7SA3j6fz7vv59Hp8mH8/30+R09OP09v0hl8zLpHyBGL3Ph84Yvl9cDeHH8bjVTgX8nW8T5R4GxA9xVgBxJHEbYAG4hoQ4pJzFVAiFakAyWrwAKAUGgATZwDIlEoNSMQOAArFXAHUaNBtgHeOnKsRShlVXaj4CpCNuAIBUlddTAiUIZPUGYxpTgCQqNTKTcQhmiKFOsMVD+sIodwUYWUhAFOoebWvjEhr39rPXgHt5yg2QiQSJIRrM6hpiQFNBhWKCNDVkMxMSLmOpSTLyV/qYD2XEK2xzRCtaATozJQ8CWihya5NDYEUjYGuIVKhBCZT33IaYdErXZ3NTDhFMzhyxkJ0o8mkUURTN/zsJCEzdePVPhJmCMt8/18AZdIakOPix/Ul5MjXNdgr0GRiXbx25W8N24Cw9Nfn0lIotDVwvUZtyUXQodzO4sBQNd82g+Rl0a/Gu25LW4cDaxuh9few+RTw0zWCVaRAMZuRzTVDyQFLuMUwn/GeMhDYU2paeUm4Qb82dEL7CJXaDZ48ICe2gwgvwX+8sv0x3B6+boeP4+EwXy6v/29vk3Y030Tl9gM=);lineShape=1;strokeColor=#36FFA1;" vertex="1" parent="1">
          <mxGeometry x="246.68707457394407" y="1183.5838189297865" width="14.488988887982439" height="3.533693042403636" as="geometry" />
        </mxCell>
        <mxCell id="Mpgq73nM_WfR40BBSJ1R-58" value="" style="shape=stencil(lVfLbhsxDPyavRJ6Szyn6X8EiFMbdePAcfr4+1JdyF1R1hi5rdecJUUOh9TiH973T2+7xZn3y/n0fffr8HzZL/7L4tzhdb87Hy7ytPjHxT+8nM67b+fTx+vz+vvtqVrWpx+nn/ULv1ccF7Khopz5s74JFP2/F19X++PhdWvvKHBn78nz3L4Eqv919inM7bOl0scTKdq5fYyUfGfPlIG9l/P29jaRBwE5R850gJohNwdYQ670Jw7kEwiJQu4rIPbAgaOc+gwFyhGUgFL//RSJC/i+pdCnKCcqBuY0xA5QUmPJtGg9KYRWDFiXWOeIUyvLbRqVgRZyBlCEzGSKBqAsCSD0ZeBMDjGbdd0EAFuBiVWWhLyA2xUQNCABJgmg2B7A9zzEqAFILgRgWQMKApTG5Q2AAZcE4M0AQIXLjQjbkNChc1Og7aER+YQIwxlMhgA7FC7iM9isAXc8eOVByIfPkAaAQ1ySAIaOY9RxohpDx8EWLU0jth4wvcdDW9xxSioFgISsNlDRAAZaXFtUUeMqnlMPQ6XveEgD+QKqNLdpswFklCUJYOw4FNIwH6wxZLB8fxKRCpVBaBxooTo01bEjZJMX7vS6UbhJz+1FgLWHjAEy0noHSZoQCNM1I9tFALDV6tUnuMaVyeIQ+3i8LGdoMTFNqa+rkoXzR1Kqdivr7xWN1S5DEW+ToVcAB2e0bKtKiA2Mh70uAWZpnce9XtimmrftZW6oPiALKib2Xn/fg7HAg1jYpoAz+xJVPu/Er+rlWkEmu/PAadf0b+qgL5gQCLRAlTa1nLeKzOzVwhPIAEZX0dH2MJ5BS0PbdGf20Sn7CGbmp693d+3l4f9d8uVwPK5X0e3/+u4pr9Z7q3/8Cw==);lineShape=1;strokeColor=#36FFA1;" vertex="1" parent="1">
          <mxGeometry x="279.43563315485403" y="1182.7300702780983" width="46.72930821191992" height="41.872240817971324" as="geometry" />
        </mxCell>
        <mxCell id="Mpgq73nM_WfR40BBSJ1R-59" value="" style="shape=stencil(lVjZbhsxDPwavxKiRF3PafofAeI0RtM4cNzr70vV0Mai1rPIm7PLiXgMqeHuwt3788Pbfufd+/l0/L7/fXg8P+/Cl533h9fn/elw1l+7cL8Ld0/H0/7b6fjz9fHy99tDs2y/fhx/tf/w54JjKq6BvPt7eeDIlf8Pvl7MXw6vV+aJYrHm7rY5C6Vo7Av49z6Sl8E+kJPb9iGR1ME+kQu37UVf58GeXX+yCohMaQyYI7GHABkBGnICJ6hLkkZAIo4g5kLMY44c1QSSWsmNRQhCBZzgPeXRpZApMQAkqqNL4ikAXoRKeayzFKqAGDFTGQGx9ESvAnKiMMaQKqRqXZjZAblC7lV97QdAycTAJXZLs3REDb2f1o+IlMIIyBQB+9QDNwahXgoIYk7TlZfrE0CoentEBYDoKYkFROCTAngCCOBra9JqAR6MAQWYqGuhUiGAJ4DgucHeAhyeG2bytVKjjuDOhCuAR3XgqXCpP7lVB3EWkFHQ3o6BBgCTKQYK1QJgHQIVtkEzOkGI3ZRWRA0hHy0ATdcGMD2q1ADDUgFmHDfyoX4IlM0JlRhnKTgLEBS0n9K62aLzCRGTr0wxhI17NFmAQ2nVBmKb1oRP4AnAGz1thmvulbkZw8TWjaDzdAIaxloHS77UBd0tgLl4W4ui2fpZQLsfpgZCklKvIM4WgARQ0TtrChrJE71lk2Gr6kxQh1Ymc4KHLaoOxDHoUmAd9LUZxkX5C8ZMFnuLZu7jeb1wqc+IRQCpTAT0Vl1ptHG7YgC9vVi2inS1vC6AShcKC8BRQLqS7fQOEepKrzrVKFftEDAqw6R/fIFBS+g6dQEI5JIKW3OhbKxYUqcdJcEYWtZHtrKHK4cmMY4ArH40wnnLAt2gW5/RMgKXrGmp1PsL0ciurAFyQrVeNuao0ZZd6sMc7XvOjhYPxfDC9w9zNLmc5b/f8N3sFwy37RVzdIdPzvBGZkyoDorHKZEO7ndTmRzMzEQCB33/5FeRTXP98fEB5unw8nL5fnP93n6w0UeXjz3h/h8=);lineShape=1;strokeColor=#36FFA1;" vertex="1" parent="1">
          <mxGeometry x="344.12430085558503" y="1190.4494837034022" width="42.77451561524374" height="48.14745102661738" as="geometry" />
        </mxCell>
        <mxCell id="Mpgq73nM_WfR40BBSJ1R-60" value="" style="shape=stencil(7VnLchw3DPyavaL4JnhWnP9wlaVoK4rkkuXY/ntjskVq2LNsycdU+bYaoYck2AAamFO8+XL/8fPtKbgvL89Pf99+O396uT/FP04hnB/vb5/PL/brFD+c4s3d0/PtX89PXx8/Xf7+/HGz3H798/Tv9obvF5xPUnRDBffj8sSJS/89+PNi/3B+3Ns38WmyD/3BVfuQRef3Z/F+bR+LuNlepYa1fWqibrL3QQpZoKT+vgEo4nUNqCrJzwDtZ7oKUNvxvCXzaa1rQEui85aCFy0EUKW2GRAkRgJoEgMC2BkMkD0CGgcAj0IUz87QDoeO3dErQDsAGDU2AGwpiSP34J1x3yEiEXZvS1QE6BuHgBUsHjIF4FVnSRxQEgJKo4BUEaB8haAIaJx97nCGxm5OJcAZ7AkjU5EynyE6fmhLezOZonGDrTACbAC0O/o6wOGhE+eSpQ03byl7ycRLWiTMW8qNUkONm7OXiiUSBrAAKxOg5k746wDLKvOW7BXRUYDLM8BSFbkH9d2JHdBiD6kVAGLayELP4HpADkDrjl4ViDgDdonkOiL19D6WUHpzxZaYQ84I3IibssVLQL9Wkr9TxkNsl0/oGj3mmTrWXCmHMpcUc0MiXvJWNWcy1SCJnCFjxFUvjXg1XLFXwgwn8WDPuHqoJiXTLOYPCaB1Dyz2nyH+HWV2QmkVR9Fe+DPN7w+VFoYieWaEKSvm/4pZfqT9hXkE/nQFsTCHRFEpeaoUIBsPelF8O5O12oXHzpy8XbHC1v5gYZ4ymGeWQyXjZlj5ViyVI9+t3t7AvJJKbOaQnqkaP+Ta1vELc8zlUsk1DUfszClnqkdzysiM5qy+155cXs0DKyo9t7z6nSnRiuJhlJiVOTKS1Z96SJWS6dsz6AyqGmpvp94XTbZV3AyP1YB5htU17UVsl2d48GGeUUpgKJpjd+81ZyL1F80rdmC+9t5hURD0IOOZzMk9HoZkdrQltII2b98UM9OCoZNwFGRH9a/HRr4U8eS8ofNq2Dda8HPvkHf2kUkoh8MUAyhhvmkuLFOeSgpTdXDFNdMklUZzOSjkeritlGmZnWp9TCOkK4odcPN0BdsxpLZmT5gO0QOgUF7XhkFsK7DpiB6aQetaaJlzXXwPLymV49bmQHGx1qrwVg3UnfmNtmpR8lxLC784azehmtrdR7al0qNxJ2jZcFEV4yEFPhLy4ud7iKWf6jogolu3vocBMpayLWsygHYi7EZITOz9nuV1L/2e5f0fZnkVC4S5lRXplg7j8zcHZ/lAV9ahbPkevOS5jkkY1J43NalhkfOZ9rYx4+DM89nCppVQkLNWxY9uYKRKOuvwCeedgX6SMHvQMoHWK3/QbqFPD67bR1GgEc2Smz18taGzEX8Ydfo+EHi3fSCM2PYzM8LRsnA8r6PSfPMnvp/V2u2+MtgzabvxIYC9Y/tP2Nfzkegvf4d8095+vH70vDs/PFy+me7/jx9J7dHlA2v88BM=);lineShape=1;strokeColor=#36FFA1;" vertex="1" parent="1">
          <mxGeometry x="193.0526040595887" y="1177.8868239749445" width="99.79571080027296" height="51.440268604464784" as="geometry" />
        </mxCell>
        <mxCell id="Mpgq73nM_WfR40BBSJ1R-61" value="" style="shape=stencil(lVjJctswDP0aXzEASXA5p+1/ZCZO42kaZ5J0+/tC9VAVIespucnyeyL2hYd48/pw+3w8BH59ezl/O/463b09HOKnQwinp4fjy+nNng7x8yHe3J9fjl9fzj+e7i6/n28n5PT0/fxz+sLvC09I00QK/Ke/yPHfiy8X+OPpaYBLHuBKWbfhTC0M8EbKCF5HuETSAvE64gvlgKTnUXp7U4D4QimOeKUG5BGvbmQSIE+g1EZ8ogDkicRlxBeqGeHLKH8yhwD7J1KHN/u3bbx278z4TJy28YXYfb92Ca/iG/FoH93xl1Ado1mVpAKCUhwl0kaCTmg9ADohYxOF7HXIlUSAzyK1OhCKuR2IZD5yOpRKEXhZoxepxl4FrhJyoMIjwfwGlC5C0eV97K6/TqiURrM2pQoINZE4QqEElDaJOXlCBX5oTHF1QkYE8dXICAKys63SuWUKwKwtUQreSgEobX+3MTTsE6ggmcRxrJA7jmvmOEcIJEik5muq2S0gszZfZIyAUtQILlqnE5DSrYfagpAwwZtVcB0zQltZCTUqZmL2DJSjbVWYjNBQ9LXeChaujljr0jwhY1fnVTCh8j25WlYE0G+NEOtKJKx0WIm042pZncCgo0yE6P2QsQ5rQsCe9iLNbe+9Sgscw66Y1TII66DBE3Zy1IeGwEZ9Jfisx+zkw6oKwPK9TiDpnfgDOYp60HRE9YS6U2hWfXSnWPpSFrtr3lssLeXwCR8k1L4hLHpQQjla/EoydTl0Qu4D1aKPwkqW+pawHB4QwazuzFpxNV5tAlNOoQ5h00bzhLozz4xKL+Jxc2QSf4SCAJ/GyOq1ZuAIG/uCiw0bv8FAY4Ol7+22oIC6ocEnaVUYfTYcO5Eq91Fza/x2GVQUTg/TSji6ujAFVDdab4LzRqBwerAlxc2JGZdjW4N0PEEL3Ahsmndbfeyz7HW/+fxRpgJUVr93p9IHoo291dXupLAlzgvSjA9wLg4+sGOFe7T0VJzx2pv2Bt4FXWSqQF+mPCa/WRhl5hxgMz5AedjvPtM9CZTHNTaJvTxt4MXlPdxYrdY5d8FJ1WJrjDbu4/cWPDs4vqKq/uuoh7MPTYaRxn7w554KWxdUKzj4uvTquoCDYih9u1zAgVfFZwnDyynxmyDDNi9+1p/dvAV3V307qmp2cDQRfPgWdAduD/8vXO9Pj4+X+9rl//6C1l5dLnfj578=);lineShape=1;strokeColor=#36FFA1;" vertex="1" parent="1">
          <mxGeometry x="250.7376921247112" y="1222.070392807039" width="181.61131592993044" height="60.19240768812635" as="geometry" />
        </mxCell>
        <mxCell id="Mpgq73nM_WfR40BBSJ1R-62" value="" style="shape=stencil(rVjZbhsxDPwavxKiDop6TtP/CBCnNprGgZNef19uDW1WXO8kBfrmOENZvIZD7dLNy+Hueb+L4eX1fPq6/3m8fz3s0qddjMenw/58fLVPu3S7SzcPp/P+y/n0/en+8vfz3YScPn07/ZhO+HWxa6R1Morh9+ULrlTL328+X/CPx6cBX8KAj5GCbOOVVEa8UgDnV9I24FOhDPBCNQ34nKjkbbydNp5fmFLcxmdKOuIrFYC3Xx/9FaYWED6M50smYXSf6s4vlGD8ZcyvCAmID9txZTSwlLdtA4toHCNac4/BdY+VYhwMlCmAEJVImUeDimtCeol1gxZJwJVqpThmoQkxyIJmUvcL1jYKDJqPUlNiYNC4u7j4hQQSZy6WMdMtEydgkHpMFmFFrdNKT9Oc6UoN+SC+2aQSg+YxFx0bWbdFdCX1eciNWgUGrbPVbFBIUJTMxRXBRGSQKefRwMobOG1RD6PTyTINiq8W4jEPiakAg6LUxigZ7SBSyqEHcZ4KhRQ4PZ03Om1xBjfiQHl0wXgWpM3gYxIYdlug6K5PAigsEGcHRxQfPLtwZ48teHBwFJrQ/9vhgSq+jDg4okZztTp4hKen4OABp8lfBhF7IIkeDorMAuHvzoAbglcSAfLnquQDHHsG96crLALfUMRgIIXenm/wDNNU1cEFwsXXO5J8llV/eoWRSdHDYVbZn47jHnwgMXG4buLOnR/rVcsq7tXs4AW7mhw8QldjcXCkSYJXSeEdnim+3v8jnOfumUcOlLXG/zw6a4MfNIjN1OgSm2Fmiwmw1eLCoHLqrKtngwbrXmd9tlhdUCmbUqhu12lY4pmYd2onwmWKw6qgM16nTB/p2L3F+hk5YQps9NokmyBRWP2QkHdlp+POqpANLa5urqjCHdWUsGsd+000Wkyc69jJFoaGNF7zvbxIzdaG4RZbS40AA9Pi7JyYpev1Lan4zE3SFaTa9jDXo29bzfVNb6WdNXaBv8UCbqpW6cNna1t163NlGCWrHLcOK2zq7GnMilWQB14b2i4awX1iVzwzPsH9Ja7ug58vUm/euTul7wIb/rpZb+2viFapOn5JUCGKbxzjSDRH5seomYQxu6gXH5P6wM8jbrGofdX42HOK4dEUUX9/FtiUq32WBaonXelKoYLYt+/fCzzq+bbapKTT9wY+r84voH6afy4zPOrf1rO/jA+8j1fGgt8HPCdafiOoz9ZV/7J+YPz/9bn1Pbx9eHvbfTg+Pl6ehpf/92/B9tXlHTnd/gE=);lineShape=1;strokeColor=#36FFA1;" vertex="1" parent="1">
          <mxGeometry x="420.0479892926887" y="1248.332343100652" width="131.99467484528597" height="73.51174524851032" as="geometry" />
        </mxCell>
        <mxCell id="Mpgq73nM_WfR40BBSJ1R-63" value="" style="shape=stencil(rVfLbhsxDPyavRISJUriOU3/I0Cc2qgbB477+vty665rUd4xCvS2Xs+sKM6IpKb08L59ettMHN5Px8Pnzffd82k7pQ8T8+51uznuTvY0pccpPbwcjptPx8PX1+fz77enGTk/fTl8m7/w48wTJm0zi8PPP29I5PeLj2f8fvd6hc9KoXb4RiEBPFPNHT5GKnWdkBK10hMqRRARJ8o9gTO1sE6IiWLsCClTbusEoRQ6fLYFIoiIao+XTAV8v5L2KS1CFe84cUeoZXlzW4S6aHQRTahlEBFT612hkZquE7RR6XOqAn2h5qPmCQz2YISsnlBAlozQehm0EAPnGcHpoPXeHlQ9oWFCk55wydsaQVxISlwgIQ6ECpS2AGr0BAVmNQLzQEBprVSLJxTkpUqpeULEhMg+rYK8ZLo6a1ScpeEAmZcUKV2HLJV7e5C+Tpq9BekwVA0jRCxcHlYIKEtt2eL1CtjeqXgCKqyzN6PPUsBn2odUqALzxRBuSC34BKmLqS3bWiOUwa4BE9Jw5ApoWBZAGw41dF/zJ+gqD/+JYS0ii5cCFb9chm2HRf7bbY4Xt126ViAFiZVlsLj00QYr02ANkaUp3R5N/JnOEfYHm3Sk3wAr7KLzjvsVoi7S346IqbhhKZKCQmYRuzJjPRFoYJOD61gMu7REjw9weLPxkz0euc7wTuMAa5gkP64GYvR9GyaTwwvIp+H9eEsB5NPwrmqbIMARNjnG4POP4jF8dnhUKQzvxrAEB5I5fncGFgHX8K444tnc8K6FCP7+P15f7uPt4e9d6WW335+vWtf/+7uVvTrfy9LjLw==);lineShape=1;strokeColor=#36FFA1;" vertex="1" parent="1">
          <mxGeometry x="582.8787643363203" y="1291.558511558888" width="44.012241850920255" height="26.58737671156527" as="geometry" />
        </mxCell>
        <mxCell id="Mpgq73nM_WfR40BBSJ1R-64" value="" style="shape=stencil(lVjLctswDPwaXTEkwQd4TtP/yEyc2lM3zjhOH39fqCptEbTXk5tNYSmAWABLTfzwvn1620zBvZ+Oh++bX7vn03biL1MIu9ft5rg76a+JHyd+eDkcN9+Oh4/X5+X/29NsOf/6cfg57/B7wXGg6GdUcH+WFV2o/xa+Lvb73evKPgiF1NkLxQDsA+XS2ftModwG6GMvvUOJUroNqJRjZ88JviBSdp19ZKooYrt/rCRg/7O3zT4xMdjfJ8q5ByTyAMBMyVlAAYAUqZYBwLcBRR3wFhAAQDQJ1QL+O3k9aYUS9wBdQbRwjlwfdQ7kEC/EBpErMfKJSfogSqEKACLt2M+1kKkgAJPrU11jc/J6IoqtzlopgVQrwAULkAwAuR37CoDKQQHeDQCBZMppcAm0DAWEOgSNAY4twCN+a0GYUxLKKAYFZAsI2CVvgi4kgBoKiMUCIqC3AkQsANWoJo4Hl3yEAAnDGzBbQxxiwABLvkIFuaSPxebBI3rrqUcLyChx+oaBrQ40pjmGoeIi4lJpHq8ABQFya9brisM1bWb0qnveIlMZSk5QF1C6Dl0g3xkpAwCN6bnkhswJ4oYC2AIYvSG1xK7YV3EMYwUllIjPAsRRMf0+ECNAblLhPIK0ewJA9ZZ9yhZUEHXoZFlgY9IQzZDTQS2gC9RMzoiHs5y4qTb6kkuaadRnkj0lBSDtcEUxCUycajJTDwpA9eAH8qkAQnOX23YrhYXYPcil5Jo0uCFzzQyNASsNyyM9gowEHFuJGBi2GI3A9w3AR5gDVd5GqWM1pjcHU2zunr0hhYPTjZ3VMQ7remcvAg6SlH17vLIH/qt9jNYeNFS1F3s+HswpvUp6Nvbo4qP2bM8HiTC1T/3w1wNA5x/adhf7O/4M9gUwms8Fcrk6Iz312av2fXv9cbnXv+z2++WzwPq5/Q6gS8s3BH78Cw==);lineShape=1;strokeColor=#36FFA1;" vertex="1" parent="1">
          <mxGeometry x="637.9934836640705" y="1296.8306964133144" width="45.93843267065447" height="46.934173652526916" as="geometry" />
        </mxCell>
        <mxCell id="Mpgq73nM_WfR40BBSJ1R-65" value="" style="shape=stencil(lVhJchsxDHyNriiCBLez4/zDVZYjVRTLJTvb74OJTJkER63yTZrpHmIlmtyEu9fdw8t2493r2+n4fft7//i224QvG+/3z7vtaf+mvzbhfhPuno6n7bfT8efz4/n/y8OCXH79OP5avvDnzPNCIS4s7/6+PyEu/x98PeMP++cez+TDgI+U43U8Z8ppwFeqDuADZT/gWSjLdUKlNOK9IwccSORG+9WB9y+s4gNJGfDBUQX2eAo84nXFjPDJDXhxlOp1vJAfvy+XDK7iMyWDT5QZJEBswiRTAAHSiPpiV4jIA6ZqVojkwQqxkjjrM4MiykLVW4IDK5REKVnC+5P1qgtUJh8SCGvVPpiiVEDeaqVsnK7kUOc4195fWtNTAQxdwo9hipkqdsLENQkV1JxaCTIQcmj1u06ItpgKUwGZq1oJdSRotYB+08zFkaBrOlCuSpDRh1ooY0IwBA00ykMg9pYQUW34ZkBHgFHytoOUUFGUtEfLREBOM8U8mYRX8JPTKQCCaxZ3hIDC6lptdolDs2chREsQMEsWk6oloOGzOG1WyHB8KsGMByVEnGnHliCo47Q0wkRAPe1bqXWEdKO8xRIKilKwmkTD6pFJay2aUFh1hamB0JRWgp8a6EaUKlsCzLSnGCwBCQ0lmF2jmwDXiinPuwBqOaYw2ZQxwU1bn6BydW2T6BOBvFaCMalA/fZ5AhMbk24MOW4CtRtBjDOXpyEnWG2Y3ThrE94Yo6M80UEdUMultkl0UiCiTCdrUvR4KqZWOb2euTGox7AKVicq4kwHycXIqzJxIiAtHS9juSMIiJJ4W0vqA5rsKqbFKNcCW1TlevQ2rEi5Jru36gIJnk/YnB8inCfOVp6eZwqwZxKtITYlse5wO4xczm94DxM7D5cTL2hOnWVjXXOBsoTZjkM9wjJoBI6WUOD5ilU8mhqCenU5gY7fd3BzUXxMBo+GreKNrHLYHg1HtHhQQMuJO1s8mGqKN2LY4QO3tNedv8geWYknyJfiIxt8Qjcq0urrA492rQU/2q+iEsVf8WLw6KS62B8MHm27n75BuonXHx/XVU/7w+F829W/t9db+uh8NRbu/wE=);lineShape=1;strokeColor=#36FFA1;" vertex="1" parent="1">
          <mxGeometry x="511.2100038330834" y="1317.8830972809003" width="56.382123292910364" height="56.75843325261572" as="geometry" />
        </mxCell>
        <mxCell id="Mpgq73nM_WfR40BBSJ1R-66" value="" style="shape=stencil(lVnLUhwxDPyavapsy88zIf9BFRC2QiAF5PX3kbPxMO7Z6U1uy9D2yLJaamkOevX6cPP17hDc69vL8+e7H8fbt4eDfjiEcHx6uHs5vtmvg14f9Or++eXu08vzt6fb099fbzqy//ry/L3v8PO0LohrfVFwv04PnLj658HHE/zx+LSCq7QKcE378CpaAB7dPtwXcRnw3hNrvPiE1pP9Y5WM5re2j89ZfJjwOh6cP64dTyd8kkbsqU3SfF4zkOzfIu7vzQOZLMiS47wg0vttReJ8Yl/F8wVhvuIQJURqUgWfeinESbYAnBQvHrrMb0gX3lBE/bQgB1F26DoMGAtKEK9kQRM3B2ppUplJTcpsUk2SyaG9W0J/WdGkcZvybFNTiezmqoQ5V5inGT1bkgJvKJKZSR7zhb2zsvxi0TzHdz8VubmiG0I4njOyGxasXlHIK6IxYrOAvUGjFMVTe3JqY1ja+JXdnOVVD2/I0lg0bcpCJxXjHCbuzlpy5g3jDB/YLYiDwEjDwrP4JB7sDxKJ/eZRoFuVRjyqUuYwskj8mwfPXxlecaniCHX88N6CtygllcEKz3xeC1uleEgW0UoR8aeTMBdOtWRA9t8UZrtxRuSwKTuFBmjA+zJ8IvYEzHWdEvS+KhRaThgdt7PCV+JPHd5b70/x2tB+VmV1eGOFZ8pCx+2vyj7XgdkjPhF/KtZwv2SMHXxMiI90fyhNnidpHYVrhWd8D9K2eBrPIEE8r/fhjH8SyQ/hjH883R/jhyvNMHT6WgZy/Jyfe7xR/maH+Av5MyOe5c8w2LrmF6vBmK86nvJLFe1hJdviuSI+0vhMG382yt8tHyPrnCRVxHP//B8+oJCzzobpAat3cz21+hJpfQG+W/0KtJ6WGZ8aVUyW/6EjML6Q/BwxnxSuf9LI3ot+CJQvGXVuXVTmDh7qYzM9QPUY8Nf0Eou3JdusegdWf01QgoNsAROUnU8ZF9CMG7GE9W6ZUSBiTrmgKbuwr7iAkaC3DhtVzLJu704CLmBeqpt5jC1Q3mEFj2egrW7CStCWnmt3ggAmBUqdtjBrFat0glA3U5NMxYGZ1KA1dkMP7k0QwK3W3xd2hox8yEsG2XXrTLjkx1xkbwFmPEcVqS0ACaieuzWhxunTPhZLaaSIVdFUZlIcmns9jSJurW3TFvhR6PYGcFCXKz1C3vSVeTSOuwNEmEVdHFDOeKXTtK5qoM8ahfTf5qt6QfVW3J01KX60JO9wRjOPPdPStOzAMxoTaMUH0gc+wRjt/js8swkJ6uMgge6uIC9Hpt+Dg3oa8n3PdhCXtFfyWOvdmB3u+V0BHglFTDnhCJ9fE+QEd6Ev+a/PDxfh9uP9S8f98fHx9KFk/X/8MmKPTl9V9Po3);lineShape=1;strokeColor=#36FFA1;" vertex="1" parent="1">
          <mxGeometry x="524.1880028831065" y="1375.2089953915104" width="112.1887878948665" height="44.545747838370325" as="geometry" />
        </mxCell>
        <mxCell id="Mpgq73nM_WfR40BBSJ1R-67" value="" style="shape=stencil(lVhJchsxDHyNriiCK3h2nH+4ynKkimK5ZGX7fTBROBZBsR3fxuNuAcTSAGcT7l53Dy/bjXev59Px6/bn/vG824RPG+/3z7vtaX/Wp02434S7p+Np++V0/P78ePn75WFBLk/fjj+WX/h14aVKXhaWd7//vaFY/r74fMEf9s/X+EycO3yhhPBM3nV4dhRlToiRXG+AE3lgISRKtSN4JgYW1GPXH1nfCM8JXCnFjqA2nQeEQCV1hOhb2G4SKoU+SFHTAvC5mV+Tpm8CiBGV0uGzpwjwnnL/+1kogBwovve/BMrA/9BqZsXr70dQRZRDhxdP1aF4+t5/KcQAryWW+xqqjnICB86tiFdCgBHSApC+JGqEjbNkqFiCgJwJU2JLYECoQjKcwYE+qBrWYAkM+kAJKVkCan4liLNncCAPSqhDWAuwwM6RMyZUQLBP1Zw6U8CE0itYXRVnGiZnCRnHlcUSKgqTtNJZCYJTLRSrtSDIJSEeCDBK6nGxYS3oDGXooES1YkK0BDQYFpcMIVLEUeKhvuEZpMnuFQENNyUY5V56FDV1bR15TcAdFIczBGyhDBYEiPfSQIMwJTQ+b/ZowMo0FtM7ymQbIpOgCV3tiNNqQYvSIpZjB+FUWykTuGV8mLBMCENQJ0FYlxlkdrG31MzGXBFrAsVVB6mdKdJmwGxU85A5dAiNiSkN3wblZDfJfZB0d0Azi5uQrnhHBcjSUNu6K0WQNWclI2eYZd/afd0NVRJAe0Zb2MlD4Ra7PcfUpP92fLzVi1CaqN0mqOb1HgVHAddQ6MtUg1DR+hntSGeVC7S9qST2zay3GAZFlJzdcBNcAVKyKwCTgKAmsVXq4IKreDPacB+nYdVzrY1meOO/a/I3wxfrD7owKN74z2303lYuZ6uUm8EZ3lxrfcv4f+JDu7ZO8aamW1dMz9vXT6SA8UZ38WUhDZt5alemaT186DPBu3h9ePsm8bQ/HC6fNK7/b79h6KvL949w/wc=);lineShape=1;strokeColor=#36FFA1;" vertex="1" parent="1">
          <mxGeometry x="685.2348704205533" y="1375.768888378414" width="62.79935805034065" height="27.209334535404388" as="geometry" />
        </mxCell>
        <mxCell id="Mpgq73nM_WfR40BBSJ1R-68" value="" style="shape=stencil(lVfLbttADPwaXYkl931O0/8IEKc26tqB4/Tx96UqrKKlpClyk2WOuCSHQ+7gH96OT6+HQdzb/Xb9fvh1er4fB/9lEDldjofb6a5Pg38c/MPL9Xb4dru+X56n369Po+X49OP6c/zC7wnHkTiPKHF/pjeBsvx78XWyP58uS3umyp19peD27StJ/3lOxAV8P5EvHUCEOOwDJFOUHlAo8D4gBAqpA/hEFXhI3noICgAxFybuATFTyCBJgVzoAClTAjGwc+Rch8iaB1QH/Tt2gKKZBmcqmVwfRPUkgBmpUuyDUJ8FlHrMou8BlTIACJPrubfIwzZilSZ1gc7ElVy1gIj6oVi+1kI1AkBuZFsABNBPAUVsXgPyUMiZvCZKoNQKsJWLVCvMkmcLQATXOki0AEYAtroxAkAdVCUkWYBHAE+8iiEnCMirtHpEV+1qE0Mm9hhQLKDiGLLxUGClx6BNluZS7qXVr3sUZYnJRwuoKEtuwwNsoLrquEoJHGmk96qnGQNctGkNqB+2WjQj/Z7ruuBSBdQYZSZYgADlG4XMpDVSQkJWV2ocoS5p4dYARlz6LEAHhJigAxU0qecxu5hZDlS6CNUeUGqr/fYYVV3qyVcCFAE9gPGQCxVQaT0A92zN3MRzE5BTy8m8PDD0EHVj6wGRm7Rt18HZOgSB5FPVSH2lfWjbxM6WmHotHrc60HBihVJlJ4AqrNYAXXsFtRslY+/gMAl2Q0ww3NKyN3++DeAd89wzwsF9tdpNz7WFd2eXtHRwxEh/VeHtcdAOxtL2zIU92nc8eWfsEf85tPvBh31C3w+2XxiuIkoVM9G0vZC2q8729kIRcS22C9fcLE1j9uxjP8NDk/o9+8/d8P5rrw8f18mX0/k83UaX/9vrp76arq7+8S8=);lineShape=1;strokeColor=#36FFA1;" vertex="1" parent="1">
          <mxGeometry x="764.4512157226616" y="1379.857512846681" width="21.81391460201858" height="28.095121202089008" as="geometry" />
        </mxCell>
        <mxCell id="Mpgq73nM_WfR40BBSJ1R-69" value="" style="shape=stencil(lVbZctswDPwavWJIghee0/Q/MhOn1tS1M457/X3BqpJMKNpO3mR5QeHYXWLgh7fj0+thCO7tdr18Pfwcn2/HgT8NIYzn4+E63vRp4MeBH14u18OX6+X7+Xn6/frUkO3p2+VHO+HXFOeoSgsK7vf0ogol/vvm84Q/jec7fKbsO3ypFADeByqpC8iFUtoP2GaUCoW6H8CBauwCYibv9wOiUO5TYqbk9gOKJw5dgK/k4n6AaMZ9So4C+IDihQ3eIXy1U3DEYAgiFEwB5AvE59rhA8UA8dLXyyRgxg1vZkwZ1StUDetwP4Vi389KCVBI+1n7egXnUzf9dORRwcr5bQCaQKaabEYZ4oPR8TzC9/HJqqzMHN/DF2cmVhDjlr8XUZLD+YhlHLIhrTdaRgfUn0Kux6tiUD7F1quKBJ6ijGAxeI/yEXJW8RU5irpyNPUKPt8wmimC/L1bHGcdMLQ4lXCPz5hwMitwJShUjMx8WQXAeACxF4wqzCFGfzSgKCP7EatmBJSc/EyZRQM8H/H+TRbtkJPKGhStQ/1nIneXqwcp+Y2MiwYgp7PGWwu8aVTlfY/aVQXwbHvarBvkw1bGjejAR8PM+nXI+Gr1VDcfKGBmi+3c4QPQjaNSbYMYnO+sr7TdAuJ97yvqlMi4NrKXOO8We3jTH+UgzsfU62dK7eCjwTtKYMAf3V//j9eHdVl+GU+nade+/98u1/pqWsz58Q8=);lineShape=1;strokeColor=#36FFA1;" vertex="1" parent="1">
          <mxGeometry x="763.5783851474973" y="1373.4032421471563" width="31.721530984043152" height="13.389677977828748" as="geometry" />
        </mxCell>
        <mxCell id="Mpgq73nM_WfR40BBSJ1R-70" value="" style="shape=stencil(lVjZbtswEPwavS54LsnnNP2PAHFqo24cOO71911WoCwuoxHypjg7JPeaHXLyD+/Hp7fD5Mz77Xr5fvh9er4dJ/9lcu70ejxcTzf5mvzj5B9eLtfDt+vl5+vz/PfbU7WsXz8uv+oKf2ZcKRRMRTnzd/7FBor2/y9fZ8D59LoGMOXSAzxZBwCO2PUASwbskKPeIZMDGyQ5UezsI1m/bc/cHGz2jiJYPzKF3t6SD9v2IRFnZV/Mtr0vlEJnH4jB+b2j4FV8MoinhEP5Kxlj4LDNVBSgkI0A4FsAl4gGKgxqoiW02XtLoYAUUOqL1MsRgb2j0leE5MSAFFhyqoIiOXB+0wLe7NmTh+urgCYLSzq01Rb7As+ftH1msug8hlzfYtKlBjhspUUUgMklAAhkuQdIlWYIcH1VCzUZVHShHWAFQEmrANaAgH1QZSoA3nF68CEDqhCAGXYouNOKomtjcGl7SkOYCkqEkEMcnADNVrt/ACTsRCgaEFHmBDBkzu/skDXAokSIDz0HS7nuJIK9BuSdPEQNSIC2BZCzBjDuIGOHHRDPhza41z6AyVMbYtgB8fCHLWd3AEO1BhRWAQQNYBRWcXrYIeEjmcGHgsIqPTocCUbJ63GyD+ChvAtKnJT3ANip1k8CbCOVBZCgZliYdDWBkEpi4j6oeZF9H6skiv36MkIZjmjVCzKikSpcWHclARxY32hGigGe32lJEpg84MjYhuVKIqFOyzr+3kB/pSJMD5AQZ0TaWVOqTVTA9KyyXd0sHOx9EcJKYyQ4RkRoq5oQ1Qa6pgr5PqYGrl8vCknZo9EsFxE1Q6QIAcGnpNWCh8x1F4FLjVIGCZAOzKoniZGKT5pKhQXQ4K/UPN4dQYTu1LwGIBeKdkEADsSoEmfQgACK4q6e1rcpqLUHqrhrss0tBq+RGKmAvhHuSnQTMNz6HSi9GlenAag3a+ZGAE6EfiYIjUC2APpaG5oQ3QJ88qljHyAf95eVl9P5PD/MrP+vX2Lkp/kVxz/+Aw==);lineShape=1;strokeColor=#FF19FF;" vertex="1" parent="1">
          <mxGeometry x="435.18642721463243" y="889.6224753812996" width="162.55773838073645" height="99.57038911125916" as="geometry" />
        </mxCell>
        <mxCell id="Mpgq73nM_WfR40BBSJ1R-71" value="" style="shape=stencil(lVjZctswDPwavWJIguLxnKb/kZk4tadunHHc6+8LjoaSCUqr+k2Wd0VicRDgwE+fx5ePw+DM5+16+X74fXq9HQf+Mjh3ej8erqebPA38PPDT2+V6+Ha9/Hx/nX5/vBRkefpx+VW+8Gfi5UyjLSxn/k5vYn3xdcKfT+/3ePk7NPhAaQR4TyE3+JGyA3hD7Bq8fIC38YkpmwbPZMH340jRN3hLMW7jQ9D6WLJgP2PQ9lryfhvvI/lWT0cB6MmZXNT6gO+z03rG+oFVvLhT6WkN+QQIsoAy2FMM2wSbyKTWYkPOAALXCJgJoTpxPYbIjG1IePIZ+IxMa7JnMkgjMiqkRQPgM0OxDaEgXwD7lwhTKWmhoqz3kwwlkMOBXKtnSsTAXokA2+ZMnrNuneC1olI2HFDIxmrgTEiUgQlCSLEjAB8LIbdBIZXPohVSZ0OGmVMIThM8MnptBVTrig1eEyI2OgVN2JE1diplkP1CCKqcGlPN2mKMnUwZ1QupkB0hYQJ3RkSsK1tNGHdW6DzHWCZmTYA1T4zuVjA7KrVFoCQETrlgNCHhYIruQULiB7eUO0/vGJ1zJys4/VdzlJENQuhDA1UB2VLUBHRYFZU6GxJeIXaEnQQK7Zb+J0f7uoHj+0EC1y7nLjaQ53KH9zUcN8700Dpazji0IUe+9XOSUxh4weiuR87oBNxsdK0PFp7Rc9c49xgWRoXX+/euls31vlm3tcw4TLm2vXMTJo08LqrKA1ZSDaxQ2irVaTOUSPoYdfZk2GpLK2zbGApkQUhIq23boGYagcW+q9kW4suo0DbCpp5Dm6OIV3iUxTLqJKfwcJTynQNgysio5rU+aFKQjE2t/nhQyN2BI0mN8FnrKY0u2k+uk9+CZ6BPqcs6fjwalbM+zkJtfTbxej9oFLyr4nezOCrrawR0IC9FfBkeLVig4L3COzSoZd3FRzhILe3ugkcZX/BG4Ue8/9BdhmCPPXZ5souXh+Wm5u10Pk8XPff/65sdeTXdCvHzPw==);lineShape=1;strokeColor=#FF19FF;" vertex="1" parent="1">
          <mxGeometry x="275.76014103252146" y="981.5430070373513" width="181.98170320679503" height="118.09527078658569" as="geometry" />
        </mxCell>
        <mxCell id="Mpgq73nM_WfR40BBSJ1R-72" value="" style="shape=stencil(lVjZchshEPyafZ0ChvPZcf7DVZYjVRTLJcs5/j5DVKyWQdsbv8m4m4U5e5j44X3/9LabnHm/nE/fd78Oz5f9xF8m5w6v+935cJFfEz9O/PByOu++nU8fr8/Xv9+eKrL++nH6WXf4feWVQhwry5k/1xVP7P4tfL3ij4fXJT5SCgrvLMA7KtzhmTLYPydyWeFNXMenQq7f35H16/go9+33txTMOj5kKkbhI9jfFzJBnScB+3hLJit7hryOZ0/FdvhIGeEN+X5/MRiwp0tk1X0tJUQQ/6eeICvAQtWAihChiWzRJpIVC2JI9ovKB5Y8cLKc2LuewJQQwWmrihtMAgRDyfeETBkQJOxUGkhcB5AHZEqPjzAPQtttDjtDmUEctaow4yOsE5Zyv39w8L6WrAprA+vKiM/YxboMpUgB3jf2aZAZnj9Q6f2bS1tZ829//uLJIvtYXYekEhcQEBLTpfdAye1O9wlBm1QICbk4kHOaUPAXXB+kZSOR7xEYFKNK8JoQCr70QEigngrBGE0o6A6+9bslAR3Jtwbz/wRd4kuLrjUC83BpFHz+nlkxwY6OA+lQvzCY1eKSrdqOBF/GVuKiCbDtSCP2mgBjybd0WRLwpXVOZ2zW0LTQMqcxQftBrISOFAazzoJmjcCD4xxOoPELAflB7jCE90ZdUhJMCEgj1RQdEwgTkhJJxrS6sBpMQ8ptlO9PEmzTdQtXIwWQtWIoYmhQWyVY1f6GIvCb0+mTfavmd/Gz/lh06AQ6tNGFeEMBCH5QGAacXxRbbx9RMB4JYZ0IPsDzz/1+ocAswEet2DjAXpibIJ3xlhhNajoJRFNuBFxSk1fAOcCDBpYYQV+I2mVuQxRKBPRfsKnpvrVZxPQlW4oHkoVVF/ZZILcyoBiJ24IizBPZ2sCmanyCokoGwtgbKcAwrTpfD9go7HzWeW/bxL02MOc+bwwcXGQg96zwKIpk4FeTiJQhcJ6cWlVYDPwAX3gIOjgw1wcRlTewLFYhVDQetPDaHVXWwNFU8FGfB2m72huNwiMdVdtQjxeDgTZT8aoOtbFhZVIeCjuTR0l/j7DhARXRMtph/JAxSB3cJojbkw7KsOqx4UkNWzRYhWccEZ974tvEy4/be+LL4Xi8Pkcu/6/fH2Xp+nbJj38B);lineShape=1;strokeColor=#FF19FF;" vertex="1" parent="1">
          <mxGeometry x="190.16165173239142" y="1096.0124952744156" width="118.63230443271685" height="90.02111786664979" as="geometry" />
        </mxCell>
        <mxCell id="Mpgq73nM_WfR40BBSJ1R-73" value="" style="shape=stencil(lVjJbhsxDP0aXwmtlHhO0/8IEKcxmsaB425/X6qGJiMq8wzfxmO+EZfHTbt49/788LbfBfd+Ph2/738fHs/Pu/hlF8Lh9Xl/Opz1aRfvd/Hu6Xjafzsdf74+Xn6/PTTJ9vTj+Kt94c8FxxRcAwX39/LCUcn/X3y9iL8cXlfimbIfxANVty2eiPMgnknKtnikVAZx7ynGbflAzsgLJb8t70iM9gKtdcRxkE+ectiW91R5NDdSFORNHwZ5TlSA/t6RG/1ZElVwgFd/1wFQ1ccVeDSQH00QRyEBQKUwqiSqEohZTOTHoEmBTk2ua7wAKhUGgEJBRoCQA0bnRC7ZEwTQmpUYbAEZAZiSWKMLAJSFaAuAKQKjS7bc0zhkEIciNjclwGRT5jgTB9f5+zmAyY8n1EoexKFqmMZipJ/IID/F978XQKYIVJJIZSRfTRSBSpKpjNRoCYRUKt2JC0DdChKoMcfY4HuWfw4QWyU1lBkUAQWYExoAkE8BnCwAGi3WS9cBdQJcUUnCjUbL5CVcW51lnyIqSLl2xJjUdfnEJoAtwCNuSK/uK0DAKlVvASipZXHKGgBadOPGDMChNpWs2YAjl9LkpSsAN8UBqxTHSqaRFsCN+YRGJhyHNPGbcRzyzG8MMHFoKYdVKjPgSo7OAFQrJ7Y2G64kEE9ewuST6YR6c1LLFZ1Mh1D23VSZGr9RD7oZUO3Yqh0CTd3ag9gkROxD11aXE9O0Ei4bkWRqvLAw+amPLpvH1iwQjEoFzvb6PVsFdJzA84zp1DrPoO2kcc1MrhEWpsJdgQWQoQ069ZmFQ0MZgErMtrUrWRhwqU2uZojTpAaANhtnC6gAkBaNl6XM4baoA36c5nVUBmK0ZUCtTuCEUGxSayAY0FU3uWJOcH2T2lq0suF3wq3dyusAnwBbk5XnDHca37e21SqagT5TndRVNwFua8kaeaQWMQiB771mtaqjkhSoGnkPs3la4XLvjxviMpob4Hal0R35g0eYbHszHmCyzUnccXK/s/gQdyCyua/jK3H4ddOdsDhb3jgYJrY7pIMs5p5DK8+AMHF38ypMUDxYU9EuyDalHN75bQNzcAK88SLuqrg+fNz5PR1eXi5Xhuv/7R2hvrrcL8b7fw==);lineShape=1;strokeColor=#FF19FF;" vertex="1" parent="1">
          <mxGeometry x="191.9015239305952" y="1190.5214493610058" width="211.87294921801154" height="142.90083517414277" as="geometry" />
        </mxCell>
        <mxCell id="Mpgq73nM_WfR40BBSJ1R-74" value="" style="shape=stencil(lVjLctswDPwaXzEkQRLkOU3/IzNxak/TOOM4ffx9oTpSTcBaT262tEsCS7yoDd+97R5et5sU3k7Hw/ftr/3jabfhL5uU9i+77XF/0l8bvt/w3dPhuP12PLy/PJ7/vz5MyOnXj8PPaYXfZ15k6jKxUvjz8YQy/3vw9Yx/3r9c4iP1NOCZuKzjOwkP8ELS1+FCqQ3wTgGsXijE0Xi1pq3jmUIe8bo+8pZkNEd3zGD9SCWM4iSojr4d7edOEeAzpVHNXKgAe4RCHdVXCzOwP8yvF4JAg2KmPO5Q0/zkOkEFHyWqQg1EhPpsTBIccRznI10IjQSYpJrzuEPLMOpyozqGRWtQ1tKI+xjWiWJaJ9Q2u7gQMvUADrpSN4lTSYAP6iKPB9eFOkrkQHlUqWOne6HYPkXQ2BdLCJiQoyMgHzpVtoSId2jJEhKIViX0YgkZEGIINiGUISA2pi2crvDk1AlDWJReI0iyBMYylWgJqAro6ySWUEB862tTuW/t0Kix8wGppEldnUroqDWaqzsHJKsSXPQJklUJLiE+hF71oVsCI1lVJbcDqvfTObgdAj5pdk7fSGova8ShIY6QQFOfEsiVjYxkVYJzumIfPKHhjDNT1RR8N5x2OX2jMBVHyLjM2BbUYSX7PME1iItiuNaDONgtOthCu1z0lQzNn5WqTwhwclVcwa8w5XSgstWYoUy52dLXtKCjeabZiamVeay+TlDVR5NkaRnXZzK2c65kKGuU2eJl6mtzZ71OYEqGoFMfClfbUFTnDvDFtriiExkQNVEba0auMFSDHRx4KYQr+OBvDnB9kwnqUQJ4nfvHihSXbrRyU6rmppTmofd6HtibmKYNWF43H+XJsBPqvUTG400wK9XYNsoTYEtQvLkFB4qgI2h4xmLw8B7JtjbiQqf44vA4XcTh0T2Vbb8JcNbRa565SAYYzYqPFo/GO8WnaPByA2/tR9ejyR7TauY5ZtVfky5zfVnV81NfUW7i9cf/TzZP++fn8xefy/f2E48+On8e4vu/);lineShape=1;strokeColor=#FF19FF;" vertex="1" parent="1">
          <mxGeometry x="399.8101653251099" y="1298.4107245679347" width="89.10478621379657" height="90.08777828374437" as="geometry" />
        </mxCell>
        <mxCell id="Mpgq73nM_WfR40BBSJ1R-75" value="" style="shape=stencil(lVnZclMxDP2avGpsy+szlP/oDIFmKC3Tlu3vkcn41pZuTiZvoRzZsnS03gN/eH24/3E8BPf69vL87fj79Pnt4cAfDyGcnh6OL6c3+XXguwN/+PL8cvz68vzz6fP53z/uO7L/+v78q5/w5yxXmVruUsH9Pf/FkSv///DpjH88Pc34RKkofGkAXyj7BR/I1cv45si7BR+JHcAHaiu+UEHnJ62PD8QZCBSqq4G8PAnd0CiuGgUed+4KeCcmVxKNcsBXrE5geRaykjwirFb1xNhMbr0hZirgEU3OWwWSp5QgMdxq15SoIuaJn+Iq0KiCN5RCoS4CmQd59wW8dnUuMBhyJp9W8rnhmX0BR2F9Q2Fo1hS1WUsertwViHUwZxNoVJAAk1sDohuaLwtw0eSrkTJIARy0p6twCVhJQti3VaBSAjdIgLnV05JGAgq5jTmbgKccgUChpAQCVUBvn8nxKsAwMfmkrdQiReA4HylFLYCo4SUNrWyVKGdgVsmMpWoBlOy9H1loE8jESCUTDyLQAPmqjlDJbAn4rQyvbvg6zLwfoJSzxkfw4kTNa3wF+iSdkiSVexSdlFnjGdCOByknPEp5Uj2NPjA0R1hN+Ab0kWq+nj8VuwsCqhT2B0B8aMYBIMykW1EGKqOB2GeoLjpC0AIIGkzYJ0ggCTET9QwIxCM3T2klomxNRekfcLKmVjTeg0wadfUQPCqZUbd3HQ8DIKj3empA/zjamhkP+CBJ1J4P8dmeD/Wp9r3AX4Jvt9mzscbjhNKCwcPzdcKVFADP13wWPEgQUbcrHQ/tHw0/A+aD4Sc+39vzQcGIpmqHwdhL8WX864E+Zjzr+BvPR/NW1H1+x4P8E3VC73iQP6PJV9fiK94Yv7pAXovHYt8L81u1eMjnnfiC9tmJX3z+jfhi9CkQb+sLqr9s8pt4ENiTB3un+ojGxEBJ6Z9hC7qxd67vqE839qmwAfXjdXN/AvVXo0xv4GD91fW0wXwSRzs49z8gnyfTn1S4akijnZ3waB+TDb7gqd7oU2D/08x7cT8mE4bu6DNsaGSGsUNPAhVApiSdghJM6X0OU5yLcKMkk56ekiIsejJL6q6Jh5KXplXbphTUFsvYolSSyABWkkDQjZmDjZ8wKa0q1Yojx4893rRmSKi0Zj0LVOkGUS3YWoFpVeJRc1D0OFYa5FLiseeY1j0ZCbRh9WmhhG7ISQ80xcERvfhR77almIzoaOTOFNcbsowoaBPodc1PeAgVv6qkmhJe+jpzw3bnvkAcfp3Wn8gPfW2h1tYer5XrKBvTChftuKQOqB1XXxKDmO6bCyWAk0Db/DptutHqsG17v2mXjlZW773c+7K+AiNVqX36Y0AEWanvFdcX4Ga8mmnFwWaz8pit3vEBEZX1dOCwPqyroRtMv4jX+qBmsOOTxoOE19/rFB4NEx1fNR7rEwwe8Efw0eiD9U/aPmhYqWZDehVv+HNF/6o/nqFh6+aPc1fx8uP9S+CX0+Pj+UPi/P/6y6H86fzVke/+AQ==);lineShape=1;strokeColor=#ABC4FF;" vertex="1" parent="1">
          <mxGeometry x="612.9888964965023" y="924.7292739824093" width="144.03634129322487" height="444.4896459198095" as="geometry" />
        </mxCell>
        <mxCell id="Mpgq73nM_WfR40BBSJ1R-76" value="" style="shape=stencil(7ZjLctswDEW/RlsM+AS5TtP/yEyc2lPXzjhO2/x94KqURSi6mXbaXXaKfMiAwMWDGsLN0/bucTN4fjqfjl83P3b35+0QPg3e7w7bzWl31qch3A7h5uF42nw5HZ8P9+Pfj3cX8vL07fj9ssPPcZ1QcJdFnl/GF5Wp1l9vPo/8fneY8Yl87flELq3zgbLhK3FEvCuWz2Wd95RDxztmYkYLONt/gA7sKLmFQeDAjtjwBe7PlIrlf1u4wntjf6YKzsuL8ybKmOeej+Qd5KXnPZUA7TfnVQ9DPi8EGmC8uBdEqRRlnRdy/XmLvgECdWWxgNubtxVdyKduQVbRAotytJoOmaJfX1CFUm+SughI6KqwK49SRnljkPIgBJohzu6fkf2VUl8kVBIgBMqXXkOeBKUkL0QdyWGDan/g1KrAGm+qXCYBRUt5U0UF86X9PGmOIsgZ5b0zfEYOlVbSZvsjQUir+TP7kT3qjmz9g/yZKXnjf3je3FL8Gl/GvBEczkjlixUoqinqn2ATJqH4ChUxPKP9NTzR8sifUwu68jC+WjKzOa/HfGHjz/BOfvV6DrCnLvlEjHmx+RhwPhp/CkWcj7X3T2ld+Z/wObcZadJzpIKmpmq7pLgWkrdLolYg07a5tamVNlkNX2DI/mLuW/Afc9/H3Pff5j6/aHnaFID/NQFNCvuW1GsXpWJ5NJQl2yKVRz0s26myuFYkV3iJdn8ParTYi5jyAhJYmvcmPsCZSRb+jDBepVX8iU+tia/wzugBz2SljbSzewDyp9gRUfXmQLykTRgzPaOL859ezN/n9eH6FeBht9+PHxHmv9uvBvpq/OIQbl8B);lineShape=1;strokeColor=#ABC4FF;" vertex="1" parent="1">
          <mxGeometry x="611.229929671159" y="1353.374290845662" width="42.93204888378162" height="17.54202563391597" as="geometry" />
        </mxCell>
        <mxCell id="Mpgq73nM_WfR40BBSJ1R-77" value="" style="shape=stencil(lVjbctpADP0av2pWe9/nNP2PzIQUphQyhPTy95XrcfFKcAxvDjmypaOjy+4Qnj62L++bwbuP8+n4ffNr93reDuHL4P3usN2cdmd5GsLzEJ7ejqfNt9Px8/A6/f3+MiLHpx/Hn+Mbfk927Bw5N5p592f6yZEP/374Ohnsd4eFQWvUisI3B/HVd3hPniE+1A4f5xdcx1eNb8QJ4DNF7vCcKFZg4Kn2BuKRAx7VQj53BkEMwBdKo9L6kCXmDAwcldAZpEQJkJolR6kzyIkYZDmxVkUJlMttg8iUelnU/9+8ahACeWWQ56iuGnhJXM9SY5gHLy71ymuBSrxtwJW4D7ol8g0YJKp9HkRdHrjEIgTWBg0kjj0F9YVCEeSBHWVj0ACtlapiVQoKkFTmABf4AiIQYarybDPL13VBrWk8CtibJEs1Ad0xhazxiB9HsccvOuYNg2AcakBE0m6dwYOAnRGp4IHmxNug8RUQZObBSCj0x9kEQH6cEUSGCeCi8Qn6442AEhC0JNjwk6A/yQgIvz+beBOYBm5m+25+dA9a479Gg4f+qPG3qp9i3o/1qRvWmv6Tmt/rBVkeNPA2AsgQ2whgxlwyjOIKMxVZcYWZjBXcIYw/GWaYDT8Jdzjz/gTfrze6tYp8DM/EFg9GmMxgw38A+Qoz23eOvERB5avCTSjrZW4c2YDPSln5U2CFsR1hBbYs5rk+FgaM9qBgXMpQQuOOrgwSPHZwoazadIRFLKrQczJQBKxK2pr6grQ+sLUHr3UhGy86eUSzhMtODXctmWVma0cxyLkg9KWcI2xdxUxvOXnAdbHNQlicbVAzEk7UQUJOCg3QKucztRCNOyT4gihHTeRRXehIWsyIIgfEKuWY+4KOcMJKe1ArlJ871C28asAyo1fwTeE9IqjNJ/QLnlEGmh6Ygl854usrBwf6kb0SEDzQ3OXEsMBjf9RKh/eDcTw+iC9J4zH/VfO5Em/T+UL3DSNe+48uAy4HmAUejYNH75TuMJCHyxXW226/n27Alv/XV17y03RdFp7/Ag==);lineShape=1;strokeColor=#ABC4FF;" vertex="1" parent="1">
          <mxGeometry x="538.9660301870817" y="933.1428065747236" width="186.6829983883549" height="331.94895397209336" as="geometry" />
        </mxCell>
        <mxCell id="Mpgq73nM_WfR40BBSJ1R-78" value="" style="shape=stencil(lVbZTsNADPyavFrr9Z7PHP+BRKERpUWlXH+PQ5SSdZpBvKXb8a6PGdudXL1u7142nXevp+PhafPR35+2nVx33vf77ebYn/Srk5tOrh4Ox83j8fC2vx9/v9wNyOHr+fA+3PA52jkSPxh59zUe1EQl/5zcjvhdv5/hI1XX4h2Vuo7nQiyNQS6UwAOSKZfGIBbyYd0gOYqhMRBPsawblEQ5NgZMMQF8ptSG4KgCh0oldgYf4jq+Mjk2ePYAL8TR4J0D+EiyuB/hM3l7f0D4YiumlAD5r5WymPwHRCF3jm8y8MSgYPpAzAZfGAYQ2gAEB6wSMYybDi7jA5U24IAL4Ckli0cEUgVE409FAtCCeYNPID8qALH5cVhgKZr8IwEM+JagPDFqzR+fDZ6RIMuk71+CRkA4zacEg/eIPxqebRAOCTjYeBWP+KP5WfiDBFZIrD8Z+V8t/xnfX6lWg6+CBd/ileCI///EZ6V7m09RQoMCR57qf54x5xRcHkrqQKuYfM7BRQPNiLQSUJIIiIGjrYFW0YMmx8GKWA0KekGsCjTPHkxi9pPKZwYJ8JTdIugKl4NF3521+suzfhrsswcqCCHYST84BJSgk5UtPgK89qlg8aizOzv5tGaI2W7qazM86hSLQamzHHXe/25/f+P143fVfOh3u3FTnf9vV1M9GtdaufkG);lineShape=1;strokeColor=#ABC4FF;" vertex="1" parent="1">
          <mxGeometry x="535.1131692302231" y="1234.1953031286791" width="10.56378123886804" height="34.216435528416795" as="geometry" />
        </mxCell>
        <mxCell id="Mpgq73nM_WfR40BBSJ1R-79" value="" style="shape=stencil(lVbLbttADPwaXYldcp/nNP2PAHFqoa4dOG6b/H25EJSGVDVFbrI8oyU5HC4nuXs5PjwfJg4vt+vl++H3/Hg7TvJlYp7Px8N1vunTJPeT3D1drodv18vP8+Py+/lhIMfTj8uv8YXXhRep1EHi8La8qJna8ubrgj/N5494phIMoUSKcZ8gTMkSUqLW9gklkBRD4EQ97xN6Xb+3EgIFAfhGOTh8BCn3TsHWKK4R7uFzMnih1CG+2YQLCYg/Bs3PJqAn4gO6DUhV7AwJpVtCpg40UwJbCWKjlKAG1YY0REMiN4obQkEqV6/CkBmFVKh3n0MBna2EbHWLhRgTxOoWhThAAosTGllnHJBdJxX8/WIzEKoogUqRnRMyxhfvTMbO5O7wAcXfts5vqIm6n0W8NvoevlrnZ+jMYTQbj7oA28bhY6SGD2iugzIFpIBmbDsoVqq4pN0RdBigWdFINj7LaDx+lqAXQrMqpAKTFln/frdBgbNCbeh80ASOL6Zq+3RMTBARE7tJEXBnR6q8OQB0UlwHzzu+rSn9Ex+o2oDUqqikwRun6yUOuiL4ad21BBDvFGsd3rGbG7CVNcK9eGw9VeAMOkJ3ENtyTZsQTIrg9apafzCJdGey9a8F7jifXtP+i9eHvzvh03w6LSvlx//9Dqmvlv1T7v8A);lineShape=1;strokeColor=#ABC4FF;" vertex="1" parent="1">
          <mxGeometry x="536.1650405633136" y="1261.570005370741" width="37.470718415150884" height="6.8488145305812065" as="geometry" />
        </mxCell>
      </root>
    </mxGraphModel>
  </diagram>
</mxfile>
